<?xml version="1.0" standalone="no"?>
<!DOCTYPE svg PUBLIC "-//W3C//DTD SVG 20010904//EN"
 "http://www.w3.org/TR/2001/REC-SVG-20010904/DTD/svg10.dtd">
<svg version="1.0" xmlns="http://www.w3.org/2000/svg"
 width="1024.000000pt" height="1024.000000pt" viewBox="0 0 1024.000000 1024.000000"
 preserveAspectRatio="xMidYMid meet">
<metadata>
Created by potrace 1.14, written by Peter Selinger 2001-2017
</metadata>
<g transform="translate(0.000000,1024.000000) scale(0.100000,-0.100000)"
fill="#000000" stroke="none">
<path d="M2585 8824 c-391 -61 -731 -278 -941 -599 -48 -74 -143 -257 -171
-330 l-11 -30 5 35 c5 33 5 34 -10 15 -13 -15 -17 -16 -17 -5 0 11 -3 10 -12
-4 -20 -35 -48 -159 -57 -256 -6 -54 -11 -880 -12 -1902 -2 -995 -5 -1808 -8
-1808 -3 0 -6 -47 -5 -104 0 -58 -3 -103 -8 -100 -4 3 -8 1 -8 -5 0 -5 5 -13
10 -16 16 -10 12 -25 -7 -25 -13 0 -14 -3 -6 -8 8 -5 14 -55 19 -147 4 -98 3
-137 -4 -130 -6 6 -12 34 -14 64 -2 34 -8 55 -16 57 -7 1 -8 0 -2 -3 13 -6 13
-120 1 -128 -5 -3 -12 7 -14 22 -3 19 -5 13 -6 -17 -1 -29 -4 -40 -10 -31 -6
9 -11 10 -15 2 -7 -11 5 -15 32 -12 6 1 12 -6 12 -15 0 -10 -5 -14 -15 -10
-11 4 -15 -2 -15 -24 0 -19 6 -30 18 -33 16 -4 16 -5 -1 -6 -14 -1 -17 -6 -12
-21 5 -16 3 -19 -12 -13 -17 6 -17 6 -1 -10 9 -9 21 -17 27 -17 6 0 11 -7 11
-15 0 -18 -16 -20 -23 -2 -3 6 -6 -7 -6 -30 -1 -33 -5 -43 -18 -43 -9 0 -14
-2 -12 -5 8 -8 79 7 79 17 0 5 -9 6 -20 3 -14 -5 -20 -2 -20 10 0 12 6 15 20
10 16 -5 20 -2 20 19 0 14 4 26 8 26 12 0 9 -154 -3 -162 -5 -4 -21 -8 -34 -8
-31 0 -24 -8 11 -12 42 -6 45 -18 5 -18 -49 0 -48 -20 1 -21 33 -1 34 -2 12
-9 -24 -8 -24 -8 -2 -9 19 -1 22 -6 22 -41 0 -26 -5 -40 -13 -40 -9 0 -12 11
-9 35 3 21 0 35 -7 35 -6 0 -11 -16 -11 -35 0 -22 -5 -35 -13 -35 -8 0 -12 12
-11 33 1 25 0 26 -3 4 -2 -15 -9 -27 -14 -27 -6 0 -4 -6 3 -13 10 -10 12 -42
10 -121 -3 -99 -5 -106 -22 -101 -10 3 -21 1 -25 -5 -4 -6 4 -10 19 -10 27 0
35 -15 13 -23 -9 -4 -9 -6 1 -6 23 -2 12 -20 -15 -24 l-28 -4 28 -2 c25 -1 40
-21 16 -21 -8 0 -8 -4 0 -13 7 -10 7 -17 0 -24 -16 -16 -2 -33 29 -34 24 -2
24 -2 5 -6 -13 -2 -23 -11 -23 -19 0 -8 -8 -14 -17 -14 -17 -1 -17 -1 0 -14
22 -17 22 -26 0 -27 -14 0 -13 -2 4 -9 13 -5 23 -15 23 -22 0 -11 -2 -11 -8 0
-6 8 -9 2 -9 -18 0 -16 5 -30 11 -30 6 0 3 -7 -7 -14 -18 -14 -17 -15 2 -21
12 -3 19 -11 15 -16 -3 -5 -10 -7 -15 -4 -5 4 -9 1 -9 -5 0 -6 10 -15 23 -20
21 -8 21 -9 -5 -9 -39 -1 -36 -28 5 -39 l32 -9 -25 -11 -25 -11 25 -1 c20 -1
22 -3 7 -8 -16 -7 -16 -9 3 -25 21 -18 28 -57 10 -57 -16 0 -9 -98 7 -104 7
-3 10 -12 7 -21 -4 -10 0 -15 10 -15 9 0 16 -4 16 -9 0 -4 -12 -7 -28 -5 -15
2 -20 1 -12 -3 40 -18 55 -55 29 -72 -11 -6 -17 -16 -13 -22 4 -8 9 -7 15 2 6
10 9 8 9 -8 0 -15 7 -23 23 -26 22 -4 22 -4 -3 -15 -18 -8 -20 -11 -7 -11 9
-1 17 -5 17 -11 0 -5 -8 -10 -17 -11 -11 0 -6 -5 12 -11 26 -10 27 -12 10 -19
-19 -6 -18 -8 5 -17 22 -9 22 -11 5 -12 -17 0 -16 -3 8 -18 27 -17 35 -32 17
-32 -19 0 -10 -19 12 -26 22 -8 22 -8 -7 -15 l-30 -7 29 -1 c29 -1 29 -1 10
-23 -10 -12 -13 -18 -7 -14 14 8 53 -10 53 -25 0 -5 -11 -7 -26 -3 -19 5 -25
4 -20 -5 4 -6 16 -11 26 -11 10 0 22 -9 25 -20 5 -16 12 -19 27 -14 16 5 20 3
15 -9 -4 -10 1 -18 14 -22 17 -6 18 -9 7 -22 -10 -12 -9 -17 6 -25 17 -9 17
-10 -1 -25 -17 -13 -16 -14 12 -8 20 4 25 2 16 -3 -11 -8 -11 -10 0 -15 10 -4
8 -6 -4 -6 -27 -1 -10 -21 19 -21 13 0 24 -4 24 -10 0 -5 -12 -10 -27 -10 -36
0 -22 -12 24 -19 31 -5 37 -10 35 -27 -3 -21 31 -44 66 -44 14 0 14 -2 3 -9
-12 -8 -12 -12 2 -26 10 -9 17 -20 17 -25 0 -5 6 -7 12 -5 18 6 51 -42 52 -74
1 -23 5 -26 31 -23 23 2 27 0 15 -8 -12 -8 -9 -9 11 -5 32 8 59 -16 59 -51 0
-13 5 -24 10 -24 6 0 10 7 10 15 0 8 5 15 10 15 6 0 10 -7 10 -15 0 -8 7 -15
15 -15 8 0 15 5 15 11 0 5 5 7 10 4 6 -4 8 -11 4 -16 -3 -6 4 -8 18 -6 12 2
19 2 13 0 -14 -5 -35 -53 -24 -53 6 0 20 9 32 20 12 12 23 16 25 10 2 -5 13
-10 25 -10 45 0 55 -27 17 -43 -8 -4 0 -6 18 -4 28 3 32 1 32 -20 0 -23 20
-34 20 -10 1 7 6 4 15 -7 7 -10 18 -15 23 -12 6 3 12 1 14 -5 2 -6 26 -13 53
-14 28 -2 56 -4 64 -4 10 -1 11 -4 2 -15 -17 -20 5 -32 27 -14 15 12 16 11 4
-4 -21 -27 -6 -39 40 -31 32 5 39 3 33 -7 -6 -9 4 -11 46 -6 46 5 49 4 22 -5
-21 -6 -33 -16 -33 -27 1 -15 2 -15 16 3 13 17 17 18 27 5 13 -16 45 -20 65
-7 8 6 12 2 12 -12 0 -12 5 -21 10 -21 6 0 10 7 10 17 0 14 2 14 21 -3 17 -15
23 -16 40 -6 17 11 19 9 19 -14 0 -27 0 -27 20 -9 16 14 23 16 32 7 9 -9 8
-12 -5 -12 -11 0 -14 -5 -10 -16 5 -13 7 -13 14 -2 7 10 11 9 22 -5 9 -14 22
-17 47 -14 l35 4 -37 1 c-35 2 -38 4 -37 30 1 15 3 20 6 10 4 -16 83 -32 83
-15 0 8 101 6 110 -3 3 -3 32 -14 65 -26 46 -16 65 -18 78 -10 12 8 22 8 36
-1 13 -8 21 -9 23 -2 2 7 12 7 28 1 25 -10 23 -13 -20 -25 -8 -2 -1 -6 17 -9
18 -2 30 -1 27 4 -3 4 4 8 15 8 12 0 21 7 21 15 0 23 17 18 23 -7 4 -12 9 -19
13 -15 4 3 14 3 23 -2 9 -4 27 -5 41 0 l25 7 -27 1 c-16 1 -28 5 -28 10 0 4
18 5 40 1 26 -5 40 -4 40 3 0 6 3 7 7 4 3 -4 -2 -16 -12 -27 -10 -11 -13 -20
-7 -20 6 0 12 5 14 12 6 18 206 17 217 -1 5 -7 14 -10 21 -6 6 4 19 1 28 -7
19 -16 132 -24 132 -9 0 5 -3 11 -7 14 -5 2 -2 2 6 0 8 -2 11 2 8 11 -10 24
19 8 33 -20 17 -31 26 -30 39 4 l11 27 -5 -27 c-3 -14 -8 -33 -11 -42 -3 -9
-1 -16 5 -16 6 0 11 6 11 14 0 26 20 28 29 4 6 -13 10 -17 10 -10 1 7 -3 21
-9 31 -6 13 -5 24 5 37 13 18 14 18 8 -3 -4 -17 -1 -23 10 -23 9 0 18 10 20
23 l4 22 2 -23 c0 -13 7 -22 14 -21 22 4 47 -13 47 -32 0 -12 7 -19 18 -18 10
0 12 3 5 6 -7 2 -13 9 -13 14 0 14 54 10 76 -6 10 -8 22 -15 27 -15 12 0 8 28
-5 33 -7 2 1 2 17 0 17 -3 45 -7 63 -10 23 -3 34 0 38 11 7 19 24 21 24 3 0
-8 -11 -20 -25 -27 -25 -13 -33 -30 -15 -30 6 0 10 5 10 10 0 6 6 10 14 10 8
0 16 6 19 13 3 9 13 10 44 1 38 -10 40 -9 36 10 -4 20 -4 20 7 3 11 -18 13
-18 31 -1 11 10 19 12 19 6 0 -7 5 -12 11 -12 6 0 8 9 4 20 -4 11 -2 20 4 20
6 0 11 -11 11 -25 0 -34 18 -32 23 3 4 26 4 26 12 5 8 -25 16 -28 30 -14 12
11 165 19 165 9 0 -5 -12 -8 -27 -8 -16 0 -35 -5 -43 -10 -11 -7 -6 -10 22
-10 20 0 40 -4 43 -10 3 -5 12 -10 18 -10 7 0 6 4 -3 10 -16 10 -15 12 22 27
37 16 99 5 106 -19 4 -18 22 -26 22 -10 0 5 12 13 28 19 l27 11 -25 2 c-19 1
-15 4 20 15 39 12 48 12 67 0 29 -20 41 -19 46 3 2 9 3 7 2 -6 -1 -12 2 -25 7
-28 6 -4 5 -10 -3 -16 -11 -8 -11 -9 1 -5 8 2 14 14 13 26 -2 13 3 21 13 21 9
0 12 -5 8 -11 -3 -6 0 -15 7 -20 23 -14 30 -10 20 10 -9 16 -7 19 12 19 12 0
35 4 51 8 26 6 28 5 22 -11 -6 -18 -6 -18 12 -2 21 19 34 21 60 8 33 -16 85
-30 93 -25 5 3 9 14 9 25 0 10 5 19 10 19 6 0 10 -9 10 -20 0 -11 5 -20 10
-20 6 0 10 9 10 20 0 11 5 20 10 20 6 0 10 -9 10 -19 0 -11 5 -23 10 -26 6 -3
10 0 10 8 0 20 26 41 35 27 3 -5 1 -10 -4 -10 -6 0 -11 -9 -11 -20 0 -11 5
-20 10 -20 6 0 9 5 8 12 -2 6 6 14 16 16 15 3 17 0 12 -13 -5 -15 -4 -16 9 -5
8 7 13 15 11 19 -3 4 39 6 92 6 56 -1 103 3 111 9 10 8 15 8 19 -2 3 -10 7
-10 19 -1 11 10 16 10 23 0 5 -8 13 -10 21 -5 24 15 69 15 69 0 0 -8 -6 -16
-12 -19 -7 -2 -10 -7 -6 -11 3 -4 18 0 32 9 17 11 35 15 52 11 16 -4 23 -3 20
3 -4 6 2 14 12 20 16 8 18 5 15 -27 -1 -20 0 -29 3 -19 6 18 24 22 39 8 6 -5
21 -12 35 -16 16 -4 20 -3 12 3 -29 20 55 47 87 27 11 -6 13 -4 8 8 -8 22 7
22 29 0 13 -13 19 -14 22 -5 2 6 8 12 14 12 6 0 8 -6 5 -14 -4 -9 4 -16 21
-21 21 -5 31 -1 45 16 15 19 20 20 28 8 8 -12 10 -12 18 0 8 12 11 12 25 -1 8
-9 12 -18 9 -22 -4 -3 4 -6 17 -6 18 0 21 3 12 12 -9 9 -7 14 6 24 25 19 48
19 32 -1 -9 -10 -9 -15 -1 -15 18 0 13 -18 -6 -23 -16 -4 -16 -5 0 -6 11 -1
21 7 24 19 6 23 33 27 33 5 0 -8 7 -15 15 -15 8 0 12 6 9 14 -3 8 -1 17 5 21
6 3 12 -2 12 -12 1 -10 5 0 9 22 l7 40 2 -40 c2 -38 3 -39 13 -15 l11 25 6
-29 c6 -31 43 -46 57 -24 5 8 2 9 -9 5 -11 -4 -17 -1 -17 8 0 8 7 15 15 15 8
0 15 5 15 10 0 6 -4 10 -10 10 -5 0 -10 5 -10 10 0 6 7 10 15 10 8 0 15 -4 15
-9 0 -19 55 -20 82 0 36 25 38 25 39 -13 1 -30 2 -31 8 -8 6 20 13 25 39 25
18 0 32 -3 32 -7 0 -12 17 -9 32 6 8 7 28 15 46 18 25 4 29 2 21 -9 -7 -7 -18
-13 -25 -13 -8 0 -14 -7 -14 -15 0 -17 16 -20 25 -5 3 6 13 10 21 10 8 0 23 9
34 20 21 21 100 29 100 10 0 -18 20 -11 21 8 0 10 3 12 6 5 6 -15 35 -17 48
-4 6 6 15 4 23 -5 11 -12 10 -14 -3 -14 -8 0 -15 -4 -15 -9 0 -5 15 -4 35 2
37 11 59 3 35 -14 -13 -9 -13 -10 0 -6 8 2 15 14 14 26 0 18 5 21 39 21 31 0
38 3 33 15 -3 8 -1 15 4 15 6 0 10 9 10 20 0 11 5 20 10 20 6 0 10 -7 10 -15
0 -21 20 -19 20 3 1 16 1 16 14 -1 11 -14 15 -15 19 -5 4 10 6 10 6 1 1 -7 8
-13 17 -13 10 0 14 5 10 16 -3 8 -2 12 4 9 6 -3 7 -17 4 -31 -4 -14 -2 -24 5
-24 6 0 11 4 11 9 0 5 22 11 50 15 47 6 70 25 33 27 -15 0 -14 2 3 9 30 12 76
1 70 -17 -3 -8 -2 -12 2 -10 4 3 30 1 59 -2 29 -4 50 -4 47 1 -3 4 -24 9 -47
9 -37 1 -39 2 -13 8 26 5 27 7 13 20 -9 7 -14 17 -11 22 3 5 16 -1 30 -14 19
-18 32 -22 66 -17 l43 5 -39 3 c-40 4 -74 26 -56 37 5 3 10 1 10 -5 0 -7 17
-10 46 -9 28 2 48 -2 53 -9 5 -9 11 -5 19 13 14 31 15 38 3 30 -5 -3 -12 -1
-16 5 -4 6 6 10 24 10 16 0 31 -4 33 -9 5 -14 48 -24 48 -11 0 6 -7 13 -15 16
-8 4 -12 10 -9 15 3 5 12 2 20 -6 19 -19 25 -19 50 0 16 12 17 14 2 15 -9 0
-19 -6 -22 -12 -3 -7 -5 -4 -3 7 1 14 11 21 31 23 23 3 27 0 23 -12 -7 -19 13
-22 31 -4 9 9 8 16 -5 30 -13 14 -13 18 -2 18 11 0 11 2 -1 10 -12 8 -10 10 8
10 13 0 20 -4 17 -10 -10 -15 25 -24 38 -10 9 10 9 14 0 17 -22 8 -14 25 7 18
14 -5 20 -2 20 9 0 12 11 16 43 16 40 1 41 1 22 16 -19 15 -19 16 10 12 17 -3
24 -3 18 -1 -7 3 -13 9 -13 15 0 10 18 8 67 -7 19 -6 21 -4 17 17 -2 12 -2 17
2 11 3 -7 12 -13 20 -13 17 0 19 27 2 33 -7 2 -10 8 -5 12 4 5 12 4 18 -2 7
-7 21 -8 45 0 43 13 45 29 2 20 -22 -4 -29 -3 -24 5 4 7 14 12 22 12 7 0 19 9
26 19 10 17 20 19 62 14 48 -6 50 -5 33 11 -19 19 -22 42 -7 51 6 3 10 -3 10
-14 0 -27 16 -27 23 0 4 14 12 20 28 17 12 -2 24 3 27 11 4 11 -2 12 -24 7
l-29 -7 23 16 c13 10 34 15 47 13 16 -4 22 -1 18 9 -3 7 -9 13 -14 13 -17 0
-9 18 11 23 12 3 20 14 20 26 0 14 6 21 20 21 11 0 20 7 20 15 0 8 5 15 11 15
6 0 8 9 4 23 -4 16 -4 18 3 8 8 -11 12 -10 21 8 7 11 9 21 5 21 -3 0 -1 7 6
15 7 8 21 15 31 15 11 0 19 5 19 10 0 6 -7 10 -16 10 -8 0 -12 5 -9 11 4 6 14
8 22 4 27 -10 54 24 47 60 -4 22 -1 35 10 44 9 8 16 20 16 28 0 8 4 12 9 8 5
-3 12 -1 16 4 3 6 12 8 19 5 8 -3 17 0 22 7 5 9 2 10 -9 6 -12 -5 -17 -1 -17
13 0 22 20 26 38 8 7 -7 12 -8 12 -2 0 5 -9 16 -20 24 -26 19 -26 33 0 25 24
-8 27 10 3 19 -15 6 -15 8 -3 17 13 8 13 10 0 19 -12 7 -8 12 20 24 25 11 29
15 15 16 -18 1 -17 2 5 15 l25 14 -28 1 c-18 0 -26 4 -21 11 4 7 21 9 45 5 48
-8 52 9 4 18 -31 6 -33 9 -25 30 13 35 9 86 -7 86 -7 0 -13 5 -13 10 0 6 14
10 31 10 24 0 29 4 25 18 -3 9 -7 35 -10 57 -3 22 -3 32 0 23 7 -23 24 -23 24
0 0 10 9 28 20 40 22 24 27 40 7 23 -10 -8 -19 -7 -33 5 -19 15 -19 15 1 11
11 -2 27 3 35 11 12 13 11 15 -8 10 -19 -5 -22 -2 -21 20 0 15 3 21 6 15 2 -7
10 -13 16 -13 5 0 7 3 4 7 -4 3 -2 12 4 20 9 10 8 13 -5 13 -9 0 -16 3 -17 8
-8 65 -5 85 14 90 19 5 19 6 2 19 -18 13 -18 13 1 13 19 1 19 1 -1 12 -19 11
-19 11 0 19 17 7 18 8 3 8 -12 1 -18 9 -18 23 0 17 3 19 12 10 7 -7 18 -12 26
-12 12 0 12 3 2 15 -9 11 -10 19 -1 28 8 11 5 17 -14 27 -31 16 -32 30 -4 30
16 0 20 5 16 19 -3 13 1 21 12 24 11 3 9 5 -6 6 -28 1 -30 21 -4 28 11 3 21
14 24 24 4 16 1 19 -13 14 -10 -3 -21 -1 -25 5 -4 6 6 10 24 10 16 0 33 5 36
10 3 6 0 10 -7 10 -8 0 -14 9 -14 20 0 15 5 18 26 14 22 -4 22 -3 -5 10 -16 8
-25 15 -20 15 6 1 16 10 23 21 12 19 11 20 -13 14 -20 -5 -25 -3 -25 13 0 16
6 19 33 16 17 -2 25 0 17 4 -27 12 -39 30 -33 52 4 17 1 21 -18 22 l-24 1 25
8 c14 4 18 9 10 9 -12 1 -11 5 4 16 19 14 18 15 -10 16 -22 1 -24 3 -7 6 20 4
22 9 17 56 -3 29 -10 54 -15 55 -12 5 -12 59 1 67 5 3 6 15 2 28 -5 12 -7 32
-6 45 0 12 -4 23 -10 23 -6 1 3 5 19 9 24 6 26 8 8 9 -13 0 -23 5 -23 10 0 6
-15 12 -32 14 -23 3 -16 5 22 6 l55 3 -42 11 -41 12 24 18 c17 13 23 26 22 51
-1 18 2 38 6 44 9 16 -7 15 -22 0 -6 -6 -15 -8 -19 -4 -4 4 -2 10 5 14 6 5 13
17 15 27 1 11 6 26 11 33 5 9 1 18 -10 28 -18 13 -18 14 4 20 29 8 29 34 0 34
l-23 0 25 20 c25 20 25 20 3 20 -13 0 -23 5 -23 10 0 6 5 10 11 10 6 0 9 8 6
18 -21 67 -21 65 2 59 22 -5 22 -5 6 14 -15 16 -16 21 -4 35 13 16 11 17 -13
10 -36 -8 -36 9 0 23 l27 11 -27 -4 c-31 -4 -40 20 -10 27 9 2 2 2 -15 0 -29
-3 -33 -1 -33 21 0 13 -6 27 -12 30 -7 3 5 3 27 1 28 -3 33 -2 15 3 l-24 8 24
18 25 18 -25 -8 c-22 -6 -23 -5 -11 9 11 14 11 18 -3 23 -21 8 -21 44 0 44 11
0 14 -6 9 -20 -5 -16 -2 -20 14 -20 26 0 27 12 1 35 -26 24 -25 45 3 46 20 1
20 2 2 6 -11 3 -26 10 -32 15 -19 15 -16 56 5 62 9 3 -1 3 -23 1 -29 -3 -34
-2 -20 4 31 13 49 38 34 46 -8 6 -7 10 2 16 10 6 4 10 -20 15 -34 7 -34 7 -10
17 22 8 23 10 5 16 -19 7 -19 8 -1 15 16 6 17 9 5 16 -12 8 -9 10 10 10 l24 0
-22 16 c-26 18 -20 38 9 29 10 -4 19 -2 19 3 0 5 -10 13 -22 17 -22 7 -21 8 7
14 l30 8 -30 4 -30 5 25 12 c23 11 22 12 -15 9 -22 -2 -32 -2 -22 0 25 6 21
23 -5 24 -21 1 -22 1 -3 7 19 7 21 16 16 75 -1 11 -9 17 -26 17 -14 0 -25 5
-25 11 0 5 3 8 8 5 4 -2 16 2 27 10 16 12 17 14 2 14 -9 0 -17 5 -17 10 0 6 8
10 18 10 14 0 14 2 3 9 -10 7 -19 4 -28 -7 -12 -16 -12 -16 -13 0 0 9 9 20 20
23 20 6 29 45 10 45 -5 0 -10 -8 -10 -17 0 -15 -2 -16 -10 -3 -6 10 -4 20 7
32 10 11 12 18 5 18 -7 0 -12 7 -12 15 0 8 5 15 10 15 6 0 10 7 10 16 0 8 -4
12 -10 9 -5 -3 -15 5 -21 18 -8 18 -7 38 5 82 16 63 15 75 -8 56 -8 -7 -17 -8
-20 -3 -3 5 4 16 15 25 26 22 24 36 -3 30 -22 -4 -23 -4 -4 11 20 16 20 16 0
31 -18 14 -18 14 6 15 l25 0 -22 18 c-16 12 -21 23 -17 40 4 13 2 22 -5 22
-11 0 -16 -25 -13 -62 1 -10 -3 -18 -8 -18 -6 0 -10 477 -10 1348 0 1298 -3
1444 -31 1571 -15 73 -60 200 -71 207 -7 5 -8 2 -4 -7 4 -8 0 -5 -9 6 -14 17
-17 18 -25 5 -8 -12 -10 -12 -10 4 0 11 -3 16 -7 13 -3 -4 -26 29 -49 73 -200
374 -512 610 -949 717 -65 16 -243 18 -2560 19 -2093 2 -2504 0 -2580 -12z
m133 -241 c-3 -31 -34 -44 -44 -19 -9 24 3 46 26 46 17 0 21 -5 18 -27z m4832
-3 c0 -11 -7 -20 -15 -20 -8 0 -15 9 -15 20 0 11 7 20 15 20 8 0 15 -9 15 -20z
m-3580 -89 c18 -50 30 -95 28 -102 -3 -10 -68 164 -68 184 0 20 10 -1 40 -82z
m935 -28 c7 -112 -10 -442 -24 -456 -16 -16 -24 156 -18 349 4 100 9 189 13
198 13 33 22 3 29 -91z m726 -20 c-14 -114 -59 -385 -67 -407 -3 -8 -12 -17
-21 -20 -11 -5 -13 0 -9 22 3 15 13 72 22 127 23 148 64 367 70 377 14 23 16
-8 5 -99z m-492 -58 c29 -179 53 -276 68 -282 7 -3 13 -11 13 -18 0 -8 9 -16
19 -20 13 -4 17 -12 13 -27 -3 -13 -1 -19 5 -15 6 4 19 -55 32 -151 41 -280
79 -438 112 -468 16 -15 21 -12 64 27 36 33 63 76 116 181 38 76 87 184 110
241 22 56 46 116 53 132 8 17 17 40 21 53 5 18 10 21 20 12 10 -8 14 -7 18 2
4 10 7 10 18 -1 11 -10 11 -15 2 -18 -10 -3 -10 -10 -2 -25 7 -13 7 -18 1 -14
-7 4 -11 -18 -11 -61 -1 -146 -13 -303 -22 -298 -5 4 -9 16 -9 27 0 12 -3 18
-7 14 -8 -8 -25 -120 -25 -164 1 -40 33 -106 54 -110 26 -5 127 119 132 162 3
20 8 41 11 46 9 15 45 -7 45 -27 0 -14 2 -14 16 3 8 10 13 13 9 7 -3 -7 -1
-13 5 -13 6 0 14 10 19 23 5 13 16 29 26 37 14 12 18 12 25 0 7 -11 14 -3 29
30 28 61 26 47 -13 -153 -31 -154 -66 -373 -66 -413 0 -28 30 -27 53 2 42 52
147 209 147 219 1 19 48 68 59 61 6 -4 11 -2 11 4 0 7 11 21 25 32 14 11 25
26 25 34 0 8 6 14 14 14 15 0 41 -94 31 -110 -12 -20 -28 -390 -17 -390 26 0
227 137 302 205 19 18 53 45 75 61 37 26 39 27 19 4 -34 -40 -37 -49 -12 -42
l22 5 -24 -39 c-17 -27 -19 -35 -7 -25 10 8 17 9 17 3 0 -6 -5 -14 -11 -18 -6
-3 -9 -22 -7 -40 3 -24 0 -34 -9 -34 -20 0 -35 -47 -23 -70 9 -16 8 -18 -5
-14 -11 5 -13 2 -9 -10 3 -9 1 -16 -5 -16 -6 0 -11 5 -11 10 0 6 -4 10 -10 10
-5 0 -10 -21 -10 -47 0 -56 -9 -73 -38 -76 -29 -2 -28 -13 2 -32 22 -15 29
-14 87 6 72 24 242 106 371 181 50 29 92 47 99 42 7 -4 9 -3 5 4 -3 6 6 13 24
17 17 4 28 10 25 15 -3 5 7 7 22 6 16 -2 32 -4 37 -5 9 -1 -45 -55 -125 -126
-19 -17 -46 -45 -62 -63 -22 -26 -25 -34 -12 -38 14 -6 46 18 168 128 29 25
54 45 55 43 2 -2 -33 -45 -78 -97 -114 -128 -130 -151 -135 -188 -2 -20 -18
-48 -38 -69 -84 -88 -184 -241 -172 -261 31 -49 482 133 865 349 123 70 166
89 119 53 -13 -11 -98 -67 -189 -127 -91 -59 -237 -162 -325 -228 -217 -163
-253 -197 -171 -163 20 8 38 16 41 16 2 1 14 4 25 7 11 3 20 9 20 15 0 5 10 3
23 -4 12 -6 28 -13 36 -14 17 -3 97 31 256 110 155 78 155 78 149 62 -2 -7
-28 -26 -57 -43 -70 -40 -149 -88 -224 -136 -64 -40 -65 -42 -67 -114 -1 -24
-9 -38 -33 -56 -32 -23 -166 -141 -211 -185 -37 -36 -20 -44 79 -36 55 4 94 3
101 -3 7 -6 74 -14 148 -18 161 -8 212 -16 218 -33 2 -6 -4 -12 -13 -12 -9 0
-13 -4 -10 -10 3 -5 17 -10 31 -10 13 0 24 -4 24 -9 0 -11 -43 -32 -145 -69
-115 -43 -313 -134 -336 -155 -59 -55 5 -68 436 -83 100 -4 171 -10 160 -14
-11 -4 -28 -17 -38 -28 -18 -20 -18 -20 3 -27 32 -10 9 -31 -50 -45 -28 -7
-50 -16 -50 -21 0 -17 -60 -39 -167 -61 -59 -12 -111 -26 -114 -31 -4 -5 -16
-7 -27 -5 -16 4 -19 2 -15 -10 4 -10 2 -13 -5 -8 -6 4 -28 4 -48 0 -26 -5 -32
-9 -22 -16 9 -7 4 -8 -15 -3 -20 4 -27 2 -22 -5 4 -6 1 -11 -6 -9 -34 4 -42 0
-29 -16 9 -10 9 -15 1 -15 -6 0 -11 -7 -11 -15 0 -11 11 -15 40 -15 154 0 341
-103 425 -235 36 -56 75 -154 75 -188 0 -21 -3 -22 -86 -19 -282 11 -518 -154
-625 -435 -8 -22 -8 -22 -65 12 -58 35 -80 41 -99 27 -17 -12 -45 -69 -38 -76
4 -4 0 -4 -10 0 -10 3 -18 1 -21 -7 -2 -8 -7 -23 -11 -34 -3 -11 -5 -22 -3
-23 2 -2 -13 -12 -32 -23 -31 -17 -32 -18 -7 -13 15 3 27 4 27 0 0 -3 -12 -12
-27 -21 -27 -15 -27 -16 -3 -9 l25 6 -24 -17 c-22 -17 -36 -20 -85 -24 -11 0
-16 -4 -13 -8 4 -3 -1 -12 -10 -18 -13 -10 -20 -10 -31 1 -10 11 -18 11 -34 3
-11 -6 -22 -8 -25 -5 -6 5 40 26 58 26 5 0 9 5 9 11 0 6 7 8 16 5 8 -3 13 -2
10 3 -8 12 21 34 34 26 6 -4 9 -3 8 2 -4 13 72 107 109 134 30 23 65 82 94
159 7 19 28 52 47 74 47 53 61 93 71 194 5 48 14 100 20 115 13 34 14 130 2
173 -6 20 -5 60 2 106 8 60 7 92 -6 168 -9 52 -21 130 -27 173 -12 90 -40 162
-87 224 -22 29 -38 66 -49 115 -19 83 -32 113 -81 181 -19 26 -41 69 -48 96
-7 27 -23 70 -36 96 -29 57 -149 173 -206 199 -35 16 -47 29 -68 73 -35 77
-77 126 -154 181 -36 26 -94 68 -128 93 -34 26 -79 52 -100 59 -21 7 -78 31
-128 53 -86 40 -94 42 -190 42 l-99 0 -40 43 c-49 53 -92 76 -174 93 -106 22
-223 -14 -301 -93 -23 -22 -41 -35 -41 -29 0 17 -58 69 -100 91 -131 67 -327
34 -409 -69 l-32 -40 -62 6 c-74 7 -160 -13 -245 -56 -31 -16 -81 -37 -110
-47 -28 -10 -76 -37 -105 -61 -28 -24 -80 -61 -114 -84 -79 -51 -135 -115
-164 -184 -19 -47 -27 -56 -67 -70 -66 -26 -176 -134 -211 -209 -16 -33 -31
-76 -35 -95 -3 -18 -25 -61 -49 -95 -49 -68 -71 -119 -82 -186 -5 -28 -25 -72
-56 -118 -56 -84 -66 -115 -79 -237 -6 -49 -15 -114 -21 -143 -6 -30 -10 -102
-9 -160 2 -59 -1 -137 -5 -174 -6 -53 -4 -78 10 -120 10 -29 20 -84 21 -121 4
-79 26 -134 77 -195 19 -23 41 -59 48 -80 6 -20 24 -56 40 -79 31 -46 26 -56
-10 -22 -32 30 -92 28 -142 -6 -36 -23 -40 -24 -46 -8 -34 101 -106 207 -185
278 -62 54 -187 118 -273 140 -34 8 -103 15 -161 15 l-103 0 18 65 c58 208
278 375 493 375 82 0 56 30 -67 78 -44 17 -89 33 -100 36 -11 3 3 4 30 1 l50
-4 -40 14 c-140 45 -188 55 -145 29 27 -16 23 -16 -60 7 -25 7 -48 13 -52 13
-3 1 -10 5 -15 10 -4 4 12 6 37 3 l45 -6 -50 15 c-27 8 -65 19 -84 25 -18 6
-72 19 -120 29 -62 13 -76 19 -51 20 19 1 44 5 55 10 20 8 19 9 -1 9 -12 1
-27 8 -34 16 -11 13 -8 15 21 16 32 1 32 2 9 9 -22 7 -20 8 15 9 303 9 549 22
564 30 29 16 33 49 8 66 -63 41 -366 165 -402 165 -8 0 -15 5 -15 10 0 6 -17
11 -37 11 -31 2 -33 3 -10 6 26 4 39 23 15 23 -27 0 9 16 45 19 4 1 7 10 7 21
0 16 9 21 42 27 27 4 36 8 25 12 -9 3 52 6 136 6 230 1 308 7 305 24 -2 8 -44
51 -94 95 -50 45 -113 101 -140 125 -27 25 -52 45 -56 45 -14 2 -19 14 -7 22
8 5 10 3 4 -6 -6 -9 -4 -11 4 -5 9 5 5 15 -16 34 -25 23 -27 29 -16 40 12 10
10 15 -9 30 -28 21 -223 142 -308 190 -115 66 -58 48 105 -33 105 -52 204
-100 220 -105 l30 -11 -25 20 c-32 25 -20 25 27 0 21 -11 52 -20 69 -20 31 0
94 -18 104 -29 13 -16 51 -30 65 -25 8 3 15 2 15 -4 0 -5 9 -12 20 -15 11 -3
20 -2 20 1 0 21 -331 265 -541 399 -79 51 -157 105 -174 119 -35 30 -40 33
224 -111 212 -115 524 -246 658 -276 59 -13 68 -10 58 20 -8 26 -107 172 -158
233 -21 27 -40 54 -41 62 -1 8 -7 20 -14 28 -9 12 -9 15 3 15 8 0 11 -5 8 -10
-3 -6 -1 -7 6 -3 17 11 -13 48 -153 195 -67 69 -114 121 -106 115 8 -6 43 -32
77 -58 44 -33 67 -45 78 -39 12 7 11 13 -11 36 -13 15 -29 27 -34 27 -5 0 -7
6 -4 14 3 7 13 13 22 12 9 0 16 5 14 12 -2 13 66 -21 218 -108 107 -62 282
-148 329 -161 41 -12 45 -12 63 11 22 27 22 87 -1 82 -18 -4 -81 26 -81 39 0
6 -5 7 -11 3 -9 -5 -10 1 -5 20 4 18 3 25 -4 21 -7 -4 -7 2 0 21 9 22 8 25 -3
16 -10 -8 -13 -7 -14 6 -7 70 -29 136 -56 164 -7 7 -28 38 -46 68 -32 52 -26
54 22 7 10 -10 22 -16 25 -12 4 3 0 10 -8 15 -8 5 -12 11 -9 14 3 3 28 -13 55
-37 101 -85 205 -163 255 -189 29 -16 48 -28 43 -29 -9 -1 54 -27 69 -28 12
-1 8 107 -8 209 -18 115 -19 141 -5 120 6 -10 8 25 6 103 -5 133 -6 133 64 15
19 -32 38 -58 43 -58 4 0 6 -3 4 -7 -3 -5 13 -33 34 -63 21 -30 47 -72 59 -93
11 -20 41 -58 66 -85 l46 -47 15 29 c11 21 13 45 8 100 -9 98 -31 224 -60 333
-13 51 -27 123 -30 160 l-5 68 27 -55 c43 -85 41 -83 68 -66 21 14 24 14 31
-2 4 -9 9 -21 10 -27 6 -30 17 -55 25 -55 5 0 6 6 4 13 -4 8 5 12 27 12 18 0
33 -6 36 -14 3 -10 0 -12 -12 -8 -20 8 -20 3 1 -31 34 -54 66 -87 82 -84 12 2
13 1 3 -6 -9 -6 -6 -14 11 -30 28 -26 37 -20 60 43 26 69 27 100 12 308 -18
239 -17 227 -6 227 9 0 32 -46 157 -310 38 -80 79 -163 92 -185 27 -45 90
-105 110 -105 40 0 102 279 128 574 6 72 8 77 20 55 l12 -24 11 27 c5 14 16
30 23 35 20 12 35 66 58 203 27 167 48 265 55 258 2 -2 13 -61 24 -133z m2886
89 c19 -63 32 -81 80 -104 25 -12 43 -26 40 -31 -3 -4 -25 -17 -48 -27 -26
-12 -47 -30 -56 -48 -28 -61 -40 -79 -48 -74 -4 3 -7 11 -7 18 1 6 -1 12 -5
12 -4 0 -13 16 -20 36 -11 29 -23 41 -67 61 -30 13 -54 27 -54 29 0 3 20 13
43 23 44 19 87 62 87 87 0 26 20 66 32 62 6 -2 16 -22 23 -44z m-3386 -150
c38 -185 47 -264 33 -264 -6 0 -15 15 -21 33 -15 45 -48 247 -56 337 -9 113 9
68 44 -106z m1561 2 c-35 -103 -78 -203 -80 -185 0 7 81 241 102 293 7 16 13
25 15 20 2 -6 -15 -63 -37 -128z m-3080 104 c0 -5 -5 -10 -11 -10 -5 0 -7 5
-4 10 3 6 8 10 11 10 2 0 4 -4 4 -10z m3920 0 c0 -5 -5 -10 -11 -10 -5 0 -7 5
-4 10 3 6 8 10 11 10 2 0 4 -4 4 -10z m-3279 -40 c21 -12 49 -60 49 -86 0 -10
-3 -15 -6 -11 -4 3 -23 -2 -43 -12 -33 -17 -40 -17 -83 -4 -28 8 -48 20 -48
28 0 24 20 70 37 83 20 15 67 16 94 2z m2803 -21 c33 -39 34 -74 4 -83 -40
-10 -88 -7 -88 7 0 7 -3 8 -8 2 -4 -5 -18 -10 -32 -10 -37 0 -39 43 -5 84 38
44 92 44 129 0z m-2175 8 c9 -11 2 -17 -31 -30 -48 -19 -55 -16 -40 18 13 28
52 34 71 12z m1517 2 c8 -14 -4 -25 -38 -33 -20 -4 -28 -2 -28 7 0 30 50 51
66 26z m-3710 -39 c12 -30 27 -46 57 -62 l41 -21 -37 -15 c-28 -11 -44 -27
-62 -61 l-24 -46 -17 42 c-13 34 -25 45 -62 60 l-46 19 44 25 c30 16 51 37 63
62 10 20 21 37 23 37 2 0 11 -18 20 -40z m549 20 c20 -22 13 -75 -9 -67 -8 3
-17 2 -22 -3 -17 -15 -54 8 -54 34 0 50 52 73 85 36z m4815 -5 c17 -21 -2 -65
-28 -65 -22 0 -42 19 -42 40 0 37 47 53 70 25z m-805 -37 c-15 -50 -178 -348
-191 -348 -11 0 128 278 173 346 19 30 26 31 18 2z m523 -23 c9 -36 19 -49 52
-67 22 -13 40 -25 40 -28 0 -4 -16 -12 -35 -19 -37 -13 -58 -43 -70 -100 -7
-33 -8 -34 -21 -16 -8 10 -14 29 -14 41 0 31 -35 71 -75 84 -46 15 -44 26 7
42 36 11 44 19 62 60 11 26 25 48 31 48 6 0 16 -20 23 -45z m-3881 13 c21 -27
21 -47 2 -72 -36 -46 -89 -29 -89 29 0 17 5 36 12 43 16 16 63 15 75 0z m160
-130 c51 -100 116 -245 104 -233 -14 15 -151 280 -151 293 0 24 11 10 47 -60z
m527 -18 c5 -20 3 -19 -8 5 -7 17 -16 41 -20 55 -5 20 -3 19 8 -5 7 -16 16
-41 20 -55z m4254 -139 c2 -13 12 -26 23 -28 26 -7 24 -18 -6 -31 -14 -6 -25
-20 -25 -30 0 -32 -13 -33 -26 -2 -7 17 -23 34 -36 39 l-22 8 22 12 c13 7 27
24 33 37 11 30 33 27 37 -5z m-6395 -13 c16 -28 16 -33 3 -40 -9 -5 -16 -18
-16 -28 0 -11 -4 -20 -10 -20 -5 0 -10 5 -10 10 0 6 -12 22 -26 35 -21 19 -23
25 -10 25 9 0 21 11 26 25 12 33 21 31 43 -7z m1943 -65 c-6 -6 -36 52 -36 69
1 7 10 -4 21 -25 11 -22 18 -41 15 -44z m2476 40 c-11 -27 -83 -153 -88 -153
-5 0 6 23 46 103 19 37 38 67 42 67 4 0 4 -8 0 -17z m604 -80 c-25 -49 -166
-243 -176 -243 -17 0 -11 17 23 62 18 24 62 80 96 126 35 45 65 82 67 82 3 0
-2 -12 -10 -27z m-3572 -152 c58 -77 115 -157 127 -178 l21 -38 -37 40 c-40
43 -203 265 -224 304 -26 48 11 7 113 -128z m4509 92 c-81 -97 -243 -252 -243
-232 0 23 264 289 286 289 3 0 -16 -26 -43 -57z m-4775 -101 c29 -35 52 -65
52 -68 0 -6 -104 106 -133 143 -12 16 -27 34 -34 41 -7 7 -13 16 -13 20 0 9
66 -61 128 -136z m-262 -50 c173 -182 254 -274 254 -288 0 -5 -14 7 -31 26
-17 19 -102 109 -189 200 -177 186 -216 230 -202 230 5 0 81 -76 168 -168z
m4598 94 c-183 -201 -356 -386 -365 -392 -20 -12 11 35 58 89 120 136 355 379
361 372 3 -3 -21 -34 -54 -69z m-1647 7 c-3 -10 -5 -2 -5 17 0 19 2 27 5 18 2
-10 2 -26 0 -35z m-3715 -20 c10 -9 18 -23 17 -32 0 -10 -4 -7 -10 8 -7 17
-15 22 -29 18 -20 -5 -26 3 -13 16 9 10 15 9 35 -10z m6041 -4 c4 -15 0 -23
-14 -26 -10 -3 -19 -10 -19 -16 0 -6 -7 -4 -16 5 -13 12 -14 20 -5 37 15 27
47 27 54 0z m-2326 -81 c-2 -13 -4 -5 -4 17 -1 22 1 32 4 23 2 -10 2 -28 0
-40z m-1597 -10 c0 -5 10 -19 23 -29 22 -20 22 -20 0 -10 -12 6 -28 25 -37 42
-13 26 -13 29 -1 19 8 -7 15 -17 15 -22z m2548 -15 c32 -28 38 -83 12 -116
-49 -62 -105 -67 -149 -11 -28 36 -27 76 5 113 21 26 33 31 69 31 26 0 51 -7
63 -17z m-2321 -50 c-3 -10 -5 -2 -5 17 0 19 2 27 5 18 2 -10 2 -26 0 -35z
m1549 6 c0 -13 -4 -14 -18 -5 -10 6 -18 14 -18 18 0 4 8 6 18 5 10 0 18 -8 18
-18z m-81 -58 c-3 -6 -11 -11 -16 -11 -5 0 -4 6 3 14 14 16 24 13 13 -3z
m-3916 -14 c2 -5 7 -3 12 4 6 10 13 7 32 -13 13 -14 69 -59 123 -99 54 -41
126 -96 159 -124 122 -102 222 -182 305 -245 47 -35 87 -65 89 -67 2 -2 2 -5
-1 -8 -7 -7 -378 248 -460 317 -15 13 -44 34 -63 48 -20 14 -43 32 -52 40 -9
8 -42 33 -73 55 -114 81 -152 121 -103 109 15 -4 30 -11 32 -17z m796 -52 c33
-32 32 -70 -1 -100 -33 -31 -61 -32 -91 -3 -30 28 -30 74 -1 105 28 30 63 29
93 -2z m1135 -10 c0 -5 -5 -3 -10 5 -5 8 -10 20 -10 25 0 6 5 3 10 -5 5 -8 10
-19 10 -25z m2472 3 c-7 -7 -12 -8 -12 -2 0 14 12 26 19 19 2 -3 -1 -11 -7
-17z m1090 -19 c-18 -16 -32 -26 -32 -22 0 11 54 62 60 56 2 -2 -10 -17 -28
-34z m932 5 c38 -38 3 -93 -50 -80 -46 12 -27 96 22 96 7 0 20 -7 28 -16z
m-314 -42 c0 -8 -167 -140 -232 -184 -23 -16 -46 -28 -52 -27 -6 0 -6 3 2 6 6
2 10 8 7 13 -5 8 74 82 185 173 43 36 58 43 72 36 10 -5 18 -13 18 -17z
m-6360 -36 c0 -8 -4 -18 -10 -21 -5 -3 -10 3 -10 14 0 12 5 21 10 21 6 0 10
-6 10 -14z m5438 -102 c4 -25 -22 -49 -43 -40 -15 5 -21 47 -8 60 14 14 48 1
51 -20z m-4098 -3 c5 -11 7 -27 4 -35 -14 -36 -71 -3 -59 34 8 25 41 26 55 1z
m553 -12 c3 -13 0 -22 -9 -26 -20 -7 -38 11 -31 31 9 23 34 20 40 -5z m2975
-2 c4 -22 -27 -35 -38 -16 -10 15 7 42 24 36 6 -2 12 -11 14 -20z m185 -112
c-3 -9 -8 -14 -10 -11 -3 3 -2 9 2 15 9 16 15 13 8 -4z m1507 -40 c-7 -8 -18
-15 -24 -15 -6 0 -2 7 8 15 25 19 32 19 16 0z m-24 -23 c8 -4 -5 -19 -35 -38
-93 -64 -283 -185 -297 -191 -20 -7 -18 21 4 39 18 17 304 197 312 197 3 1 10
-3 16 -7z m-6152 -103 c116 -73 154 -104 143 -115 -9 -9 -228 129 -279 177
-43 40 -43 40 -9 24 19 -9 84 -48 145 -86z m841 73 c-3 -3 -11 0 -18 7 -9 10
-8 11 6 5 10 -3 15 -9 12 -12z m5574 -1 c9 -16 7 -17 -16 -13 -17 3 -24 1 -19
-6 3 -6 1 -14 -5 -18 -8 -4 -9 -3 -5 4 5 8 -2 10 -24 6 -34 -7 -38 1 -13 28
21 24 69 24 82 -1z m-1799 -82 c0 -6 -4 -7 -10 -4 -5 3 -10 11 -10 16 0 6 5 7
10 4 6 -3 10 -11 10 -16z m-1774 -84 c62 -31 97 -78 82 -110 l-10 -22 -56 23
c-84 35 -123 31 -47 -5 77 -35 115 -79 115 -132 0 -21 -4 -39 -9 -39 -5 0 -34
12 -65 26 -65 29 -89 26 -29 -4 70 -36 99 -86 82 -146 -5 -20 -12 -36 -14 -36
-3 0 -19 9 -37 20 -28 17 -51 20 -154 20 -66 0 -124 -3 -127 -7 -4 -3 -1 -13
6 -21 10 -13 9 -14 -10 -4 -16 9 -24 9 -29 0 -5 -7 -3 -8 7 -3 7 5 -4 -9 -26
-32 -43 -44 -138 -97 -158 -88 -15 7 11 -11 71 -50 25 -16 57 -46 70 -65 25
-38 26 -72 3 -174 -14 -64 -5 -74 33 -37 80 78 198 81 305 7 44 -31 81 -92 80
-132 -1 -46 -23 -96 -51 -117 -24 -18 -31 -18 -79 -7 -29 7 -85 28 -124 46
-77 37 -195 68 -294 79 -63 7 -63 7 -56 -16 4 -13 8 -25 9 -25 0 -1 30 -9 66
-18 80 -21 129 -54 166 -112 20 -31 33 -43 44 -39 8 4 34 11 58 18 110 29 255
-64 254 -164 -1 -23 -6 -55 -12 -70 -12 -28 -60 -68 -60 -49 0 9 -75 50 -92
50 -5 0 -6 -16 -2 -37 6 -31 5 -35 -10 -30 -27 11 7 -45 46 -75 81 -62 96 -84
106 -149 10 -69 3 -128 -9 -74 -7 29 -7 29 -14 7 -6 -18 -10 -20 -16 -10 -7
10 -9 11 -9 0 0 -7 -5 -10 -10 -7 -8 5 -7 11 1 21 6 8 9 17 6 20 -3 3 -13 -6
-22 -20 l-17 -26 -19 21 c-14 16 -25 20 -44 15 -14 -4 -25 -2 -25 3 0 5 -7 11
-15 15 -10 4 -18 -6 -26 -34 -16 -53 -77 -85 -148 -78 -62 6 -100 36 -142 110
l-34 61 -5 -59 c-7 -88 -25 -107 -105 -112 -35 -2 -62 -8 -60 -13 3 -4 -9 -4
-26 1 -18 5 -36 7 -42 3 -6 -3 -7 -1 -3 5 5 8 -1 12 -17 12 -28 0 -147 38
-164 52 -7 6 -19 8 -27 5 -17 -7 -30 7 -56 59 -14 29 -20 34 -21 19 -2 -30
-16 32 -18 78 -1 45 -11 47 -44 7 -22 -25 -26 -27 -30 -12 -3 13 -8 9 -18 -15
-15 -37 -34 -45 -23 -10 17 56 36 91 65 118 30 28 31 30 15 48 -13 14 -14 20
-5 23 9 3 7 7 -5 11 -10 4 -15 3 -11 -3 16 -27 -19 -4 -68 43 -71 67 -87 126
-63 222 7 28 -5 33 -23 11 -10 -12 -17 -11 -45 7 -19 12 -41 33 -51 47 -16 24
-16 24 -12 2 3 -12 1 -20 -4 -16 -17 10 -10 98 11 131 20 34 85 73 119 73 27
0 43 -33 39 -82 -3 -38 -1 -41 32 -52 l35 -11 0 -85 c0 -103 10 -122 94 -179
32 -22 68 -53 80 -68 19 -26 20 -26 21 -7 0 12 7 27 15 34 29 24 17 61 -35
116 -88 93 -111 182 -70 272 48 105 116 160 217 174 105 15 138 14 167 -6 24
-15 26 -22 20 -49 -3 -18 -10 -34 -13 -37 -4 -3 -17 -22 -30 -42 -27 -45 -67
-71 -144 -93 l-58 -17 46 -29 c95 -61 104 -161 25 -285 -12 -19 -11 -25 8 -49
12 -15 22 -35 22 -44 0 -14 -2 -14 -10 -1 -8 12 -10 11 -10 -5 0 -12 6 -28 13
-35 10 -13 10 -13 -2 -3 -13 11 -17 8 -28 -15 -8 -18 -11 -20 -7 -5 7 30 -12
37 -30 11 -13 -19 -19 -21 -34 -11 -33 20 -42 2 -42 -82 1 -41 44 -104 85
-121 43 -18 72 -8 140 50 63 54 98 72 158 81 75 11 129 -1 175 -40 49 -42 83
-45 111 -9 12 15 21 32 21 39 0 6 -27 33 -60 59 -111 86 -129 150 -84 294 5
14 4 14 -4 3 -6 -8 -20 -15 -31 -16 -16 -1 -18 2 -10 16 14 27 11 46 -5 24
-35 -51 -54 -95 -49 -114 3 -12 -2 -41 -11 -65 -14 -36 -25 -47 -57 -60 -50
-20 -59 -20 -59 2 0 15 -2 15 -10 2 -9 -13 -13 -12 -30 9 -34 40 -26 76 25
113 24 18 44 36 45 41 0 4 -15 7 -34 7 -52 0 -69 23 -64 85 4 51 13 70 90 187
25 38 32 63 39 129 6 65 14 92 38 131 17 27 28 47 23 45 -4 -2 -34 -17 -67
-32 l-59 -28 -66 19 -65 19 -1 43 c0 24 -6 47 -12 51 -6 4 -14 32 -18 62 -7
63 5 96 53 142 24 22 30 36 32 80 4 95 68 157 163 157 32 0 50 -6 62 -19 17
-19 17 -21 -1 -45 -10 -14 -21 -26 -25 -26 -8 0 -46 -36 -65 -61 -24 -30 63
-7 99 26 63 59 104 84 178 109 l75 26 -79 -5 c-43 -3 -85 -10 -92 -16 -11 -9
-15 -7 -20 6 -6 13 -9 14 -16 3 -6 -9 -7 -3 -3 17 3 17 20 44 36 60 39 41 37
63 -4 56 -14 -2 4 42 27 68 65 72 233 96 332 46z m540 1 c54 -25 87 -62 98
-111 4 -16 3 -25 -1 -20 -4 6 -23 11 -42 12 l-33 1 28 -17 c42 -26 63 -53 70
-90 l7 -32 -54 5 c-30 2 -74 7 -99 11 -45 6 -44 5 19 -19 77 -30 159 -85 186
-126 16 -24 27 -30 58 -30 20 0 37 4 37 8 0 4 -25 32 -55 62 -30 30 -55 58
-55 61 0 43 115 54 171 16 46 -30 81 -101 73 -145 -6 -29 -2 -39 29 -70 19
-20 40 -47 46 -60 17 -32 15 -89 -3 -141 -9 -24 -16 -58 -16 -76 0 -31 -2 -33
-61 -45 -57 -12 -64 -12 -112 9 -56 24 -87 33 -87 25 0 -3 11 -25 25 -48 15
-25 31 -78 40 -132 9 -49 24 -101 33 -115 9 -15 34 -52 56 -82 36 -53 38 -60
34 -112 -3 -31 -9 -60 -15 -66 -12 -12 -60 -14 -92 -4 -38 13 -17 -12 32 -37
23 -11 47 -28 54 -37 20 -26 16 -78 -7 -94 -25 -17 -125 -16 -143 2 -7 7 -11
35 -10 69 2 45 -3 66 -23 99 -13 23 -29 45 -36 49 -6 4 -8 3 -5 -2 3 -6 2 -16
-4 -24 -5 -9 -9 -10 -9 -3 0 6 -8 9 -19 6 -18 -5 -19 -7 -5 -45 20 -57 17 -85
-14 -148 -18 -37 -42 -66 -72 -87 -71 -51 -80 -61 -73 -80 21 -59 88 -79 119
-35 26 38 73 56 149 56 88 1 124 -14 199 -81 49 -44 66 -53 97 -53 42 0 90 34
114 81 15 29 20 95 9 123 -8 21 -32 21 -36 0 -3 -13 -7 -13 -28 6 -23 20 -25
20 -37 4 -12 -16 -13 -16 -13 -1 0 9 -5 17 -11 17 -6 0 -9 -7 -5 -15 3 -8 2
-15 -3 -15 -19 0 -20 59 -2 96 19 38 18 38 -7 103 -14 36 -27 80 -30 98 -6 44
33 121 70 142 66 36 66 37 -10 60 -80 24 -124 56 -152 112 -36 69 -23 101 50
131 32 14 37 13 55 -4 13 -13 29 -18 45 -14 49 10 103 -16 166 -79 67 -66 84
-105 84 -185 -1 -64 -30 -121 -100 -191 l-61 -61 21 -35 c12 -20 19 -42 16
-49 -8 -21 1 -17 41 20 21 18 64 50 96 71 76 48 90 79 81 181 l-7 74 31 0 c36
0 47 23 37 71 -8 35 16 69 47 69 34 0 97 -40 113 -71 20 -38 17 -124 -4 -124
-8 0 -16 -6 -19 -14 -3 -9 0 -11 8 -6 8 5 11 4 6 -3 -4 -6 -13 -9 -21 -5 -8 3
-15 0 -15 -7 0 -8 -15 -11 -46 -8 -41 3 -45 2 -39 -17 16 -49 18 -68 6 -61 -7
5 -11 -6 -11 -34 0 -65 -14 -85 -103 -141 -51 -33 -71 -74 -46 -93 29 -22 67
-82 78 -121 9 -36 9 -38 -4 -21 -9 12 -15 15 -15 7 0 -11 -3 -11 -15 -1 -8 7
-15 19 -15 28 0 8 -3 12 -7 9 -3 -4 -12 2 -20 13 -23 33 -30 23 -35 -47 -2
-39 -9 -68 -16 -71 -7 -2 -12 -13 -12 -25 0 -11 -3 -17 -7 -14 -3 4 -12 -2
-20 -13 -7 -10 -20 -17 -27 -14 -8 3 -16 -3 -19 -15 -4 -15 -13 -21 -35 -21
-16 0 -42 -4 -58 -9 -41 -13 -180 -21 -163 -9 10 6 4 8 -18 5 -18 -2 -33 0
-33 3 0 6 -35 17 -65 20 -2 0 -18 13 -34 28 -23 21 -30 37 -33 72 l-3 44 -35
-59 c-32 -54 -84 -99 -102 -88 -5 2 -8 -1 -8 -6 0 -7 -27 -11 -69 -11 -56 0
-70 3 -75 17 -6 15 -8 15 -17 3 -8 -11 -9 -10 -4 8 7 26 -3 65 -15 57 -5 -3
-12 0 -15 6 -4 5 -13 8 -21 5 -8 -3 -14 1 -14 10 0 13 -8 12 -42 -8 -42 -24
-89 -26 -89 -3 0 6 -6 9 -14 7 -21 -4 -27 31 -10 71 11 26 12 36 3 39 -7 3 12
24 42 47 90 70 100 80 100 100 0 10 -7 24 -15 31 -9 7 -14 19 -11 26 10 27
-14 24 -47 -6 -47 -41 -79 -40 -100 5 -22 46 -21 87 2 133 47 92 149 137 253
111 29 -7 59 -12 67 -10 7 1 10 -2 6 -8 -3 -6 -4 -11 -1 -11 3 0 12 15 20 33
31 68 68 98 157 127 76 25 84 30 87 55 2 17 0 25 -7 21 -6 -4 -54 -13 -107
-21 -116 -18 -164 -32 -270 -79 -98 -43 -157 -54 -177 -34 -55 54 -61 150 -14
212 29 38 113 83 170 93 67 10 122 -5 170 -48 25 -22 48 -35 52 -30 3 6 -2 36
-11 67 -20 71 -15 141 15 182 12 18 52 47 94 68 40 20 61 34 47 31 -30 -7
-119 39 -143 74 -10 13 -20 18 -28 14 -7 -5 -10 -4 -6 2 7 11 -34 31 -88 44
-27 6 -26 6 13 8 23 0 42 -3 42 -9 0 -5 7 -7 15 -4 39 15 -7 24 -123 24 -113
-1 -132 -3 -175 -24 -45 -22 -48 -23 -57 -5 -27 49 3 109 76 158 l49 33 -35
-7 c-19 -4 -39 -10 -45 -13 -20 -12 -66 -10 -71 3 -17 43 77 135 161 156 22 6
16 7 -23 5 -30 -2 -59 -9 -65 -15 -14 -14 -77 -14 -77 -1 0 38 55 100 110 124
57 25 184 21 246 -8z m-2808 -18 c30 -30 -3 -87 -39 -68 -19 10 -27 59 -12 73
10 11 38 8 51 -5z m4872 -33 c0 -6 -11 -17 -24 -23 -20 -9 -27 -8 -37 5 -11
13 -10 18 10 34 18 15 27 17 37 8 8 -6 14 -17 14 -24z m-3973 3 c-3 -8 -6 -5
-6 6 -1 11 2 17 5 13 3 -3 4 -12 1 -19z m-1816 -89 c147 -74 185 -104 58 -45
-79 36 -220 116 -206 116 5 0 71 -32 148 -71z m2749 11 c22 -14 -11 -40 -87
-70 -35 -14 -63 -28 -63 -32 0 -5 -7 -8 -15 -8 -8 0 -15 -5 -15 -11 0 -5 -4
-8 -9 -4 -5 3 -17 -5 -25 -17 -9 -12 -16 -18 -16 -13 0 6 -5 2 -11 -7 -5 -10
-42 -27 -82 -39 -143 -43 -219 -91 -253 -163 -13 -28 -39 -69 -58 -91 -30 -34
-36 -37 -51 -25 -13 11 -18 11 -25 1 -6 -10 -9 -10 -15 -1 -11 17 4 99 26 141
25 50 95 108 146 122 25 6 45 19 48 28 15 45 131 118 189 119 17 0 40 10 53
21 48 46 218 78 263 49z m1356 -9 c23 -10 50 -28 60 -38 11 -12 39 -23 67 -26
68 -9 123 -41 159 -92 18 -25 39 -45 48 -45 24 0 76 -31 116 -70 45 -42 73
-102 74 -154 l0 -38 -25 16 c-24 16 -25 16 -25 -4 0 -33 -18 -23 -56 30 -20
28 -40 50 -45 50 -5 0 -9 6 -9 14 0 8 -12 24 -27 36 -16 12 -21 18 -13 14 8
-4 -7 14 -35 40 -57 54 -96 77 -176 99 -30 9 -86 37 -125 62 -38 25 -92 53
-121 61 -32 9 -57 24 -67 39 l-16 25 87 0 c64 0 99 -6 129 -19z m2433 -282
c26 -72 40 -89 94 -114 43 -21 48 -25 32 -32 -43 -17 -95 -60 -112 -90 -10
-18 -22 -33 -27 -33 -5 0 -15 -8 -22 -17 -12 -16 -12 -15 -8 7 5 20 3 22 -5
10 -9 -12 -11 -11 -11 7 0 32 -40 74 -91 93 -24 10 -44 23 -44 30 0 7 18 19
40 27 55 19 79 45 99 109 10 30 22 54 29 51 6 -2 18 -23 26 -48z m-4099 -1 c0
-54 -72 -158 -111 -158 -8 0 -24 -6 -34 -14 -18 -13 -18 -15 15 -28 19 -8 42
-23 50 -32 19 -24 15 -94 -8 -125 -21 -29 -101 -73 -119 -66 -7 2 -13 0 -13
-4 0 -5 -15 -19 -32 -30 -18 -12 -48 -32 -67 -46 -44 -32 -63 -32 -84 4 -45
77 8 199 112 257 43 24 50 33 54 67 10 73 82 153 164 183 56 19 73 18 73 -8z
m1842 6 c87 -29 167 -122 168 -195 0 -19 9 -29 34 -41 18 -9 51 -31 71 -50 59
-51 110 -178 72 -178 -7 0 -21 -16 -30 -35 -9 -20 -24 -35 -34 -35 -23 0 -144
92 -139 106 3 7 -3 10 -15 7 -11 -3 -34 6 -57 23 l-37 27 25 -28 c23 -25 23
-27 4 -17 -12 7 -34 26 -49 44 -22 26 -26 39 -22 71 6 44 37 83 81 102 l29 12
-22 22 c-11 11 -30 21 -41 21 -54 0 -85 39 -105 128 -8 38 -1 40 67 16z
m-1176 -39 c65 -19 126 -72 158 -137 26 -52 34 -108 16 -108 -5 0 -10 -6 -10
-14 0 -8 -12 -28 -26 -45 -34 -41 -66 -40 -118 3 l-42 34 -16 -29 c-10 -16
-22 -29 -29 -29 -20 0 -100 92 -124 143 -14 30 -25 43 -29 35 -3 -7 -4 9 -2
36 9 109 91 150 222 111z m625 -23 c34 -38 36 -64 11 -130 -18 -46 -43 -81
-104 -145 -26 -27 -28 -27 -52 -12 -14 10 -23 22 -19 31 8 21 0 17 -38 -16
-43 -37 -60 -43 -93 -31 -35 14 -66 67 -66 115 0 82 56 156 155 203 40 19 62
23 114 20 57 -3 67 -6 92 -35z m-3515 -3 c26 -25 33 -86 12 -107 -15 -15 -92
-15 -134 0 -54 19 -52 74 3 118 34 27 84 22 119 -11z m1768 -188 l25 -49 -24
-28 c-14 -16 -25 -33 -25 -37 0 -5 -7 -34 -16 -64 -14 -49 -22 -58 -72 -91
-32 -20 -61 -35 -65 -34 -5 1 -6 -2 -3 -7 3 -5 0 -11 -8 -14 -7 -3 -28 -51
-46 -106 -18 -56 -37 -104 -43 -108 -6 -3 -20 6 -32 22 l-23 27 -25 -42 -25
-43 -7 36 c-9 44 1 89 31 147 34 66 68 97 145 132 38 17 66 34 64 39 -3 4 -28
6 -55 3 -28 -2 -50 0 -50 4 0 5 7 31 15 59 20 66 93 148 160 179 27 13 51 24
52 24 2 0 14 -22 27 -49z m2817 -7 c59 -41 102 -109 114 -183 6 -39 5 -43 -10
-37 -40 15 -61 16 -78 4 -16 -12 -11 -16 49 -38 108 -40 164 -111 180 -227 5
-45 4 -53 -9 -53 -9 0 -20 8 -25 17 -14 24 -52 25 -52 0 0 -16 -3 -17 -15 -7
-8 7 -15 23 -15 35 0 25 -39 105 -52 105 -4 0 -4 7 -1 17 5 12 3 14 -7 8 -8
-5 -11 -4 -6 3 7 12 -35 62 -53 62 -6 0 -11 5 -11 11 0 5 -4 7 -10 4 -5 -3
-10 -1 -10 5 0 6 -4 9 -9 6 -20 -13 -59 42 -71 100 -13 64 -46 128 -61 118 -5
-3 3 19 18 50 l27 55 35 -15 c20 -8 52 -26 72 -40z m-4255 18 c77 -32 173 -81
161 -82 -13 0 -158 62 -202 87 -53 30 -42 29 41 -5z m5584 -1 c0 -9 -140 -61
-214 -80 -79 -21 -18 12 96 50 132 45 118 41 118 30z m507 -137 c-3 -3 -12 -4
-19 -1 -8 3 -5 6 6 6 11 1 17 -2 13 -5z m-6000 -70 c-3 -3 -12 -4 -19 -1 -8 3
-5 6 6 6 11 1 17 -2 13 -5z m5433 2 c0 -2 -35 -11 -77 -20 -43 -9 -89 -19
-103 -22 -14 -3 -22 -3 -18 1 13 14 198 52 198 41z m-1945 -166 c21 -22 37
-40 34 -40 -3 0 -23 18 -44 40 -21 22 -37 40 -34 40 3 0 23 -18 44 -40z m2533
-93 c5 -36 -32 -56 -59 -31 -23 21 -24 42 -2 66 14 16 19 17 37 4 12 -7 22
-25 24 -39z m-6617 33 c29 -16 24 -45 -8 -48 -23 -1 -25 0 -13 9 12 9 11 10
-7 6 -24 -5 -27 0 -17 27 7 19 18 20 45 6z m268 -71 c38 -13 41 -32 4 -23 -53
11 -63 15 -63 25 0 12 20 11 59 -2z m6100 2 c19 -12 -51 -26 -76 -16 -16 7
-15 9 7 15 35 11 53 11 69 1z m-4544 -51 c10 -11 16 -20 13 -20 -3 0 -13 9
-23 20 -10 11 -16 20 -13 20 3 0 13 -9 23 -20z m-30 -59 c29 -17 30 -20 31
-93 1 -75 1 -77 43 -127 39 -46 44 -59 48 -114 4 -50 1 -72 -16 -110 -12 -26
-26 -45 -31 -42 -6 4 -10 0 -10 -8 0 -18 -30 -27 -88 -27 -26 0 -41 4 -37 10
4 6 -1 7 -11 3 -13 -5 -15 -2 -9 15 5 16 2 22 -9 22 -9 0 -16 4 -16 10 0 16
72 91 97 101 29 11 29 26 1 35 -13 4 -25 9 -28 13 -5 6 -65 30 -85 34 -5 1
-19 17 -31 34 -23 37 -36 34 -28 -6 5 -24 4 -24 -7 -7 -38 60 8 213 79 261 39
26 54 26 107 -4z m3071 10 c84 -51 131 -188 89 -261 -14 -25 -14 -25 -16 15
-1 22 -3 31 -6 20 -2 -11 -6 -30 -8 -42 -4 -16 -17 -25 -48 -34 -56 -15 -59
-16 -84 -24 -13 -4 -23 -11 -23 -16 0 -5 -6 -9 -14 -9 -8 0 -18 -5 -22 -12 -5
-7 -3 -8 5 -3 21 12 89 -25 116 -66 30 -42 28 -65 -8 -95 -12 -10 -19 -15 -15
-10 7 9 -34 72 -56 88 -23 16 -24 7 -5 -27 12 -19 27 -35 35 -35 8 0 14 -8 14
-19 0 -28 -46 -15 -73 20 -18 25 -22 27 -30 13 -8 -14 -10 -14 -21 3 -45 68
-55 165 -20 200 8 8 11 19 8 24 -3 6 1 18 9 27 35 40 49 85 45 136 -7 65 -4
71 40 101 44 30 48 30 88 6z m-4756 -44 c29 -22 50 -61 50 -91 0 -16 -3 -27
-6 -24 -3 4 -22 0 -41 -9 -48 -19 -98 -10 -120 23 -9 14 -22 23 -29 20 -21 -8
3 57 29 76 26 20 95 23 117 5z m1419 -18 c19 -31 19 -31 -6 -86 -20 -46 -23
-65 -18 -108 7 -52 -7 -86 -18 -45 -3 14 -10 18 -22 14 -12 -5 -15 -15 -11
-38 4 -21 -1 -15 -13 19 -24 61 -25 107 -7 168 14 48 51 107 67 107 5 0 18
-14 28 -31z m3575 -6 c13 -21 29 -56 36 -77 15 -46 8 -137 -13 -166 -8 -12
-13 -31 -11 -43 3 -13 -2 -8 -11 12 -9 18 -14 38 -11 45 2 6 5 2 5 -9 1 -17 3
-17 11 -5 14 22 12 53 -5 76 -11 14 -17 16 -23 7 -13 -20 -27 0 -40 55 -16 70
-15 88 4 117 22 33 29 32 58 -12z m1487 8 c16 -16 29 -38 29 -48 -1 -22 -30
-64 -30 -42 0 10 -2 11 -8 2 -13 -21 -61 -34 -83 -23 -11 7 -19 7 -19 1 0 -5
-12 -5 -30 2 -70 26 -12 137 72 137 30 0 46 -7 69 -29z m-6063 -420 c4 -27
-24 -61 -49 -61 -25 0 -52 44 -44 70 15 47 86 40 93 -9z m5606 27 c20 -29 20
-47 -1 -70 -18 -21 -53 -24 -71 -6 -29 29 -1 98 39 98 10 0 25 -10 33 -22z
m-4543 -39 c-5 -13 -10 -18 -10 -11 -1 7 -5 10 -11 7 -16 -10 -12 7 7 27 21
23 28 11 14 -23z m3403 25 c9 -8 21 -24 26 -34 17 -32 -23 -13 -42 21 -18 31
-9 39 16 13z m1371 -144 c9 0 6 -8 -10 -25 -14 -13 -25 -29 -25 -36 0 -7 -11
3 -24 22 -17 25 -20 37 -12 44 7 6 16 19 20 30 7 19 8 18 22 -7 8 -16 21 -28
29 -28z m-6115 31 c0 -5 7 -17 15 -25 14 -14 14 -19 -7 -47 -19 -26 -24 -28
-26 -12 -2 10 -11 24 -20 31 -16 12 -16 14 1 23 9 6 17 17 17 24 0 8 5 15 10
15 6 0 10 -4 10 -9z m2131 -41 c11 0 17 -4 14 -10 -11 -17 -65 -12 -65 6 0 11
5 14 16 10 9 -3 25 -6 35 -6z m-557 -60 c25 -12 50 -30 56 -40 10 -19 9 -19
-25 1 -19 12 -38 25 -41 30 -3 6 -15 7 -26 3 -11 -3 -18 -2 -15 2 3 5 -18 7
-46 6 -41 -3 -57 -9 -74 -29 -13 -15 -23 -21 -23 -14 0 7 11 23 25 36 31 32
103 34 169 5z m3084 4 c12 -8 22 -25 22 -37 -1 -22 -1 -22 -13 -2 -14 23 -28
27 -124 29 -68 1 -71 2 -40 13 47 17 129 16 155 -3z m-4812 -81 c10 -51 35
-111 50 -124 8 -7 36 -18 62 -24 60 -16 64 -31 10 -45 -52 -14 -85 -43 -105
-92 -10 -26 -19 -35 -30 -31 -8 3 -18 0 -23 -6 -4 -8 -12 6 -20 34 -14 51 -43
76 -113 97 -46 14 -44 26 8 44 66 22 88 46 108 113 20 66 43 80 53 34z m6434
-29 c27 -87 48 -110 114 -123 47 -10 41 -28 -13 -46 -54 -17 -83 -46 -102 -99
l-12 -33 -31 33 c-17 18 -44 47 -59 63 -16 17 -48 37 -74 44 l-46 14 24 16
c13 9 30 17 38 17 7 0 29 9 47 21 27 16 37 32 50 77 9 31 19 61 21 65 11 18
28 -2 43 -49z m-3619 -18 c41 -1 55 -4 52 -13 -3 -7 1 -13 8 -13 22 0 0 -13
-28 -17 -49 -6 -134 27 -178 69 l-40 38 65 -32 c49 -24 79 -32 121 -32z m889
33 c-71 -60 -164 -78 -211 -40 l-24 19 40 -10 c52 -14 96 -5 165 32 69 37 74
37 30 -1z m-3330 -14 c0 -11 -11 -15 -42 -15 l-43 1 30 14 c40 18 55 18 55 0z
m5695 -1 c46 -19 43 -22 -17 -16 -33 3 -48 9 -48 18 0 18 19 18 65 -2z m900
-3 c3 -5 1 -12 -5 -16 -5 -3 -10 1 -10 9 0 18 6 21 15 7z m-8 -218 c-2 -16 -4
-3 -4 27 0 30 2 43 4 28 2 -16 2 -40 0 -55z m-6236 -13 c30 -5 92 -29 139 -52
197 -96 317 -291 296 -479 l-7 -56 53 13 c112 30 212 8 283 -60 25 -23 45 -47
45 -53 0 -5 -30 -14 -67 -20 -38 -6 -94 -21 -126 -33 -62 -23 -180 -99 -235
-149 -35 -32 -53 -42 -32 -16 17 21 4 38 -21 25 -14 -8 -19 -8 -17 1 2 6 -9
15 -23 19 -37 11 -100 55 -91 64 4 5 -2 7 -13 6 -34 -4 -46 0 -40 10 7 12 -17
12 -66 1 -29 -7 -52 -3 -110 17 -61 22 -94 26 -184 28 -60 0 -130 1 -154 2
l-44 2 7 62 c7 55 6 60 -8 49 -14 -11 -16 -11 -16 5 -1 18 -1 18 -15 0 -15
-19 -15 -19 -15 5 -1 22 -1 23 -12 5 -6 -11 -15 -38 -20 -60 -8 -37 -22 -55
-40 -56 -3 0 -4 9 -1 20 4 16 2 19 -11 14 -11 -4 -16 -1 -16 12 0 14 -8 20
-30 21 -32 2 -60 23 -60 45 -1 20 -30 -51 -31 -76 -1 -11 -5 -3 -11 19 -14 56
-3 187 21 265 46 147 158 283 284 345 118 58 261 78 388 55z m5171 -5 c156
-33 310 -148 382 -284 61 -117 97 -313 66 -361 -7 -11 -10 -6 -10 20 -1 31 -2
33 -14 18 -7 -10 -22 -18 -33 -18 -10 0 -25 -6 -31 -12 -13 -13 -17 -15 -52
-17 -11 0 -26 -13 -33 -28 l-15 -27 -6 40 c-9 48 -45 119 -46 89 0 -15 -2 -17
-9 -7 -6 10 -10 6 -15 -14 -6 -22 -9 -25 -17 -13 -7 10 -8 -4 -4 -43 5 -41 3
-58 -7 -64 -7 -5 -85 -12 -173 -15 -128 -5 -171 -11 -215 -28 -36 -13 -58 -17
-64 -11 -13 13 -59 13 -51 0 3 -5 1 -10 -5 -10 -7 0 -10 -7 -7 -14 4 -11 1
-13 -10 -9 -12 5 -14 3 -8 -8 5 -8 -1 -5 -13 5 -12 11 -22 14 -22 8 0 -6 6
-12 13 -15 8 -3 7 -10 -7 -26 -19 -21 -43 -30 -31 -11 4 6 -8 2 -26 -9 -17
-11 -37 -17 -44 -15 -7 3 -16 0 -20 -5 -3 -6 -10 -9 -15 -6 -5 3 -23 -1 -39
-10 -17 -8 -42 -16 -55 -17 -14 -1 -28 -8 -31 -16 -5 -15 -36 3 -107 63 -58
49 -164 96 -256 114 l-83 16 30 47 c38 60 119 115 194 130 54 12 129 5 202
-17 19 -6 20 -2 17 61 -8 144 39 265 143 369 133 133 336 191 527 150z m-3572
-30 c14 -19 14 -19 -2 -6 -10 7 -18 18 -18 24 0 6 1 8 3 6 1 -2 9 -13 17 -24z
m809 -15 c-14 -40 -79 -96 -126 -109 -54 -15 -86 -14 -135 7 l-43 17 80 5 c90
6 157 33 202 81 16 16 29 29 30 29 1 0 -3 -13 -8 -30z m932 1 c-20 -37 -101
-98 -152 -114 -65 -22 -137 -22 -191 0 -56 21 -98 51 -98 68 0 10 17 6 63 -15
50 -24 75 -30 133 -30 60 0 80 5 140 34 38 19 78 44 88 55 24 26 30 27 17 2z
m-4353 -14 c19 7 14 -5 -7 -16 -16 -9 -20 -6 -24 17 -4 22 -3 24 6 11 7 -9 18
-14 25 -12z m2767 -69 c65 -19 146 -11 209 22 32 16 62 28 65 25 12 -12 -18
-41 -69 -67 -75 -39 -153 -39 -235 1 -33 16 -73 43 -90 60 l-30 32 60 -32 c33
-17 73 -36 90 -41z m838 46 c54 -36 131 -50 203 -37 33 6 61 9 62 8 2 -2 -16
-14 -40 -26 -88 -47 -216 -22 -268 51 -27 38 -9 40 43 4z m3644 -156 c-2 -18
-4 -4 -4 32 0 36 2 50 4 33 2 -18 2 -48 0 -65z m-5448 -53 c0 -5 -9 1 -19 14
-11 13 -20 28 -20 35 0 6 9 0 20 -14 11 -14 20 -29 19 -35z m5508 33 c-3 -8
-6 -5 -6 6 -1 11 2 17 5 13 3 -3 4 -12 1 -19z m-3886 -16 c-22 -42 -103 -101
-159 -118 -62 -18 -146 -15 -197 7 -28 12 -23 13 72 19 90 5 110 10 175 43 41
20 83 45 93 57 22 24 31 20 16 -8z m1547 6 c-22 -34 -132 -88 -179 -88 -58 0
-47 14 28 34 69 18 137 48 148 66 3 5 9 10 12 10 3 0 -1 -10 -9 -22z m-1389
-27 c47 -33 126 -60 212 -71 45 -5 84 -12 86 -14 7 -7 -59 -26 -91 -26 -81 0
-193 53 -233 109 -18 26 -9 27 26 2z m3668 -53 c-2 -13 -4 -3 -4 22 0 25 2 35
4 23 2 -13 2 -33 0 -45z m-5113 29 c65 -17 75 -40 14 -31 -39 6 -118 38 -118
48 0 6 47 -1 104 -17z m1486 -105 c25 -12 71 -27 103 -34 56 -12 57 -12 57
-48 0 -19 7 -71 15 -115 16 -88 19 -132 8 -122 -4 4 -12 -6 -19 -23 -9 -20
-18 -28 -28 -24 -14 5 -16 -24 -16 -263 l0 -269 -79 -51 -78 -50 -52 32 c-63
40 -187 75 -263 75 l-56 0 -6 253 c-7 322 -6 303 -17 286 -8 -12 -12 -11 -23
3 -7 10 -16 15 -19 11 -11 -11 -7 57 8 142 8 44 15 96 15 116 0 38 14 49 65
49 40 0 160 67 200 111 l40 44 50 -50 c27 -28 70 -61 95 -73z m-726 68 c82
-10 114 -24 82 -36 -28 -11 -166 3 -218 21 -65 23 -62 40 5 31 28 -4 88 -11
131 -16z m1351 5 c-42 -32 -176 -53 -260 -41 -71 11 -43 24 80 36 60 6 111 13
114 16 2 2 23 4 45 4 38 -1 40 -2 21 -15z m-2355 -30 c0 -5 -5 -3 -10 5 -5 8
-10 20 -10 25 0 6 5 3 10 -5 5 -8 10 -19 10 -25z m-1680 9 c28 -6 31 -10 26
-33 -3 -14 -11 -62 -17 -106 -6 -44 -13 -94 -15 -111 -4 -30 -6 -31 -65 -37
-45 -4 -75 -14 -112 -37 -28 -17 -45 -24 -38 -16 14 17 1 22 -15 6 -6 -6 -20
-4 -39 6 -17 9 -40 17 -52 18 -12 1 -29 8 -37 16 -9 7 -16 9 -16 5 0 -5 -9 0
-20 10 -11 10 -20 14 -21 9 0 -5 -4 1 -9 14 -23 56 78 182 185 233 50 24 73
29 136 29 42 0 91 -3 109 -6z m6783 -23 c60 -29 134 -102 167 -164 24 -46 24
-46 5 -65 -30 -28 -81 -50 -131 -58 -25 -3 -52 -13 -60 -21 -13 -14 -17 -14
-32 0 -9 8 -51 25 -92 37 -110 33 -104 26 -112 120 -4 45 -12 96 -17 113 -23
63 -16 66 129 63 77 -1 104 -6 143 -25z m-1954 -27 c-54 -57 -117 -84 -194
-84 -37 0 -65 4 -65 10 0 6 3 10 8 11 101 8 217 46 248 81 10 10 22 18 28 18
5 0 -6 -16 -25 -36z m-3103 8 c-10 -16 105 -55 175 -60 57 -4 67 -7 58 -18 -7
-9 -33 -14 -73 -14 -49 0 -71 6 -111 29 -27 16 -59 38 -69 50 -19 21 -19 21 3
21 12 0 20 -4 17 -8z m5311 -44 c-3 -8 -6 -5 -6 6 -1 11 2 17 5 13 3 -3 4 -12
1 -19z m-4156 -47 c-29 -41 -111 -78 -200 -92 -71 -11 -161 -5 -161 10 0 4 39
13 88 19 101 15 190 42 247 76 22 14 42 23 44 21 2 -2 -6 -17 -18 -34z m785
18 c31 -29 147 -67 252 -81 97 -13 117 -31 43 -36 -114 -8 -270 40 -309 96
-34 46 -26 58 14 21z m-1918 -58 c49 -25 106 -40 165 -42 26 -2 47 -7 47 -12
0 -5 -7 -7 -15 -3 -8 3 -15 1 -15 -4 0 -9 15 -14 23 -7 3 2 11 -6 56 -55 23
-26 23 -27 2 -21 -12 3 -24 9 -27 14 -3 5 -16 9 -28 9 -13 0 -29 7 -36 15 -7
8 -21 15 -31 15 -11 0 -19 5 -19 11 0 6 -9 9 -20 6 -11 -3 -23 -1 -26 4 -3 5
5 9 18 10 13 0 -2 9 -36 19 -32 10 -64 24 -69 29 -16 16 -27 13 -21 -4 4 -8 1
-15 -4 -15 -16 0 -24 18 -12 25 6 4 8 11 5 16 -9 13 2 11 43 -10z m5412 -5 c0
-11 -19 -15 -25 -6 -3 5 1 10 9 10 9 0 16 -2 16 -4z m-5360 -46 c18 -12 2 -12
-25 0 -13 6 -15 9 -5 9 8 0 22 -4 30 -9z m990 -27 c-7 -10 -52 -49 -102 -88
-144 -112 -148 -115 -103 -63 22 25 44 47 49 47 13 2 69 51 57 51 -5 0 -13 -4
-16 -10 -3 -5 -16 -15 -28 -21 -12 -7 -19 -8 -15 -4 4 4 3 16 -2 26 -10 18 6
27 112 59 21 6 40 16 44 21 3 6 8 8 11 6 2 -3 -1 -13 -7 -24z m1020 -15 c0 -4
8 -5 18 -1 9 3 14 3 10 -1 -3 -4 7 -22 24 -39 50 -52 101 -117 96 -122 -6 -6
-224 175 -232 192 -3 8 10 6 40 -5 24 -9 44 -20 44 -24z m761 19 c-10 -9 -11
-8 -5 6 3 10 9 15 12 12 3 -3 0 -11 -7 -18z m-5014 -29 c-3 -8 -6 -5 -6 6 -1
11 2 17 5 13 3 -3 4 -12 1 -19z m2208 -26 c-3 -3 -11 0 -18 7 -9 10 -8 11 6 5
10 -3 15 -9 12 -12z m202 -8 c-3 -3 -12 -4 -19 -1 -8 3 -5 6 6 6 11 1 17 -2
13 -5z m784 -31 c-5 -10 -38 -45 -72 -78 -42 -40 -56 -50 -44 -30 15 24 113
123 123 125 1 0 -2 -8 -7 -17z m70 -41 c-25 -49 -108 -132 -133 -132 -16 0
-15 6 14 41 61 77 132 151 136 141 2 -6 -6 -28 -17 -50z m976 -54 c48 -57 67
-86 51 -75 -16 9 -28 15 -28 12 0 -3 -9 -1 -19 5 -28 15 -88 90 -106 134 -15
36 -15 37 4 27 11 -6 55 -53 98 -103z m69 16 c94 -102 111 -135 27 -49 -81 81
-127 135 -116 135 5 0 45 -39 89 -86z m3294 76 c0 -5 -2 -10 -4 -10 -3 0 -8 5
-11 10 -3 6 -1 10 4 10 6 0 11 -4 11 -10z m-2463 -51 c39 -10 93 -29 120 -42
26 -13 72 -27 101 -31 115 -15 238 -86 321 -186 52 -63 124 -178 136 -219 6
-21 9 -18 24 26 44 131 164 274 277 331 112 56 252 80 305 52 14 -8 33 -6 72
5 80 25 237 30 327 11 261 -56 508 -294 550 -531 6 -33 13 -69 16 -80 4 -17 3
-18 -5 -4 -10 16 -61 16 -61 0 0 -4 -23 -13 -50 -20 -28 -7 -68 -21 -90 -32
-21 -10 -49 -19 -60 -19 -23 0 -50 -21 -50 -39 0 -6 -7 -11 -16 -11 -30 0
-159 -32 -186 -46 -14 -8 -38 -14 -51 -14 -14 0 -29 -5 -33 -11 -3 -6 -17 -8
-31 -4 -19 4 -26 1 -30 -15 -4 -16 -13 -20 -47 -20 -23 0 -47 -5 -54 -12 -15
-15 -101 -11 -121 5 -9 7 -12 8 -8 1 4 -7 -4 -11 -21 -12 -15 0 -43 -3 -62 -6
-25 -4 -29 -4 -15 3 16 7 11 9 -20 8 -22 0 -46 -5 -54 -11 -10 -8 -15 -8 -18
0 -2 6 -25 9 -58 6 -46 -3 -55 -1 -55 12 0 12 -10 16 -40 16 -22 0 -40 3 -40
8 0 12 -69 5 -85 -8 -8 -7 -24 -28 -36 -47 -16 -26 -24 -31 -30 -21 -7 10 -9
9 -9 -5 0 -13 -4 -15 -17 -8 -27 15 -56 23 -83 26 -14 1 -33 5 -42 9 -11 5
-18 4 -18 -2 0 -6 -12 0 -27 14 -14 13 -31 23 -37 22 -6 -1 -27 6 -46 17 -19
10 -48 22 -65 26 -23 5 -25 7 -8 8 26 1 38 17 22 27 -8 5 -9 3 -4 -6 6 -10 3
-11 -16 -5 -35 12 -199 16 -199 5 0 -11 -121 -7 -141 5 -12 8 -12 6 0 -9 8 -9
21 -14 30 -11 12 5 13 3 4 -6 -9 -9 -19 -9 -42 1 -17 7 -29 15 -27 19 2 3 -10
7 -26 8 -17 1 -36 7 -42 12 -14 11 -228 8 -262 -3 -17 -6 -23 -2 -34 23 -10
24 -18 30 -34 27 -48 -9 -67 -19 -62 -32 17 -41 16 -45 -4 -14 -12 19 -60 72
-107 117 -126 123 -248 174 -420 177 -46 0 -83 3 -83 5 0 2 9 19 21 37 23 38
106 102 146 113 20 5 35 23 57 67 18 36 58 87 100 129 169 168 405 227 653
164z m-2668 -24 c130 -32 240 -101 300 -189 31 -45 61 -132 61 -178 l0 -28 47
30 c108 69 223 67 317 -5 46 -35 69 -68 95 -133 l21 -52 -62 -31 c-74 -37
-169 -125 -210 -194 -17 -27 -27 -41 -24 -31 6 19 6 19 -11 4 -10 -9 -31 -19
-48 -23 -16 -4 -37 -9 -45 -12 -8 -4 -17 -7 -20 -8 -30 -8 -58 -21 -87 -41
-42 -28 -81 -31 -99 -6 -7 9 -18 17 -26 17 -7 0 -12 9 -10 19 2 12 -1 15 -8
11 -7 -4 -15 -3 -19 2 -10 14 -96 52 -99 43 -2 -4 -30 1 -63 11 -75 23 -162
24 -243 3 -33 -9 -69 -16 -80 -16 -10 1 -16 -2 -12 -5 3 -3 -2 -12 -12 -19
-12 -9 -22 -9 -36 -2 -15 8 -16 12 -5 19 10 6 5 9 -16 11 -58 4 -100 7 -133 9
-18 1 -35 6 -38 11 -8 13 -37 9 -31 -5 4 -10 -14 -12 -81 -11 -82 2 -87 1
-114 -26 -28 -28 -29 -53 -3 -63 7 -3 41 6 76 20 55 22 73 25 148 21 47 -3
105 -11 127 -19 l41 -13 -50 -61 c-28 -33 -61 -83 -74 -112 -27 -59 -53 -169
-53 -229 l0 -41 -47 -3 c-151 -12 -333 8 -440 47 -27 10 -61 14 -93 11 -27 -3
-50 -1 -50 3 0 4 -16 11 -35 15 -19 3 -38 10 -41 15 -3 5 -13 9 -23 9 -10 0
-30 9 -45 21 -15 11 -33 19 -40 16 -21 -8 -27 3 -15 26 13 23 -1 17 -40 -17
-27 -24 -19 -4 12 31 11 13 17 26 14 30 -4 3 -7 1 -7 -7 0 -10 -3 -10 -16 1
-12 9 -17 10 -23 1 -5 -8 -11 -5 -21 8 -8 11 -22 20 -31 20 -17 0 -43 46 -34
61 9 13 -9 11 -24 -3 -12 -11 -13 -9 -6 7 5 11 8 32 9 47 0 15 4 24 8 22 9 -6
10 -2 12 40 1 16 7 31 14 32 8 2 9 1 1 -3 -8 -4 -7 -8 2 -14 12 -8 11 -11 -1
-19 -8 -5 -11 -10 -6 -10 4 0 0 -12 -10 -27 -17 -27 -17 -27 19 4 20 18 54 36
74 42 39 9 84 10 93 1 3 -3 14 -10 25 -16 11 -6 26 -29 34 -50 8 -21 15 -40
16 -41 1 -2 18 6 39 16 64 33 167 46 249 32 40 -6 82 -13 94 -14 12 -1 21 -4
20 -7 -1 -3 3 -5 8 -5 6 0 9 6 9 12 -1 7 3 10 9 6 6 -4 8 0 4 11 -4 9 -3 15 1
12 4 -2 22 10 40 29 32 32 32 34 12 40 -34 11 -70 -3 -70 -25 0 -23 -10 -25
-29 -7 -11 10 -12 8 -6 -10 7 -24 5 -25 -62 -28 -22 0 -33 4 -33 13 0 8 -6 12
-15 8 -8 -3 -15 -1 -15 4 0 20 -45 79 -72 95 -24 14 -27 14 -22 0 5 -11 0 -15
-19 -15 -14 0 -27 -5 -29 -12 -3 -8 -61 -12 -201 -12 -163 -1 -200 -4 -208
-16 -8 -11 -12 -12 -16 -2 -2 6 -9 10 -14 6 -5 -3 -9 0 -9 5 0 7 -27 11 -69
11 -61 0 -70 3 -87 25 -10 14 -25 23 -32 20 -7 -3 -23 0 -34 6 -15 8 -22 8
-28 -1 -4 -7 -13 -9 -20 -5 -9 6 -9 9 0 15 6 4 -12 10 -41 14 -30 4 -57 12
-61 18 -7 12 -88 37 -122 38 -10 0 -24 8 -31 17 -9 11 -25 16 -56 15 -23 -1
-45 1 -48 5 -9 11 -104 57 -119 58 -8 0 -19 8 -26 17 -7 10 -16 15 -20 11 -11
-12 4 77 25 142 37 115 144 252 260 331 148 101 294 143 449 129 47 -5 138 -7
202 -6 135 3 193 -10 303 -67 81 -42 187 -144 225 -215 14 -26 27 -47 30 -47
3 0 18 26 35 58 39 75 163 198 240 239 64 34 149 61 230 74 78 12 351 2 424
-16z m5008 -52 c-2 -16 -4 -5 -4 22 0 28 2 40 4 28 2 -13 2 -35 0 -50z m130
41 c-3 -3 -12 -4 -19 -1 -8 3 -5 6 6 6 11 1 17 -2 13 -5z m-4567 -45 c-7 -11
-14 -18 -17 -15 -3 3 0 12 7 21 18 21 23 19 10 -6z m4560 11 c0 -5 -4 -10 -10
-10 -5 0 -10 5 -10 10 0 6 5 10 10 10 6 0 10 -4 10 -10z m-3426 -92 c-2 -3 1
-10 7 -14 8 -4 9 -3 5 4 -12 19 3 14 40 -14 33 -26 44 -57 24 -69 -5 -3 -7
-12 -4 -19 3 -7 -3 -16 -13 -20 -15 -6 -15 -8 -3 -16 13 -8 13 -10 1 -10 -8 0
-22 -7 -30 -14 -14 -13 -20 -12 -49 6 l-32 20 0 111 1 112 28 -35 c16 -19 27
-38 25 -42z m-886 35 c0 -16 -5 -31 -12 -35 -8 -6 -7 -8 2 -8 14 0 18 -105 4
-114 -10 -6 -9 -36 1 -54 6 -8 3 -10 -7 -6 -14 6 -20 17 -18 35 1 4 -7 5 -17
2 -10 -3 -22 0 -25 6 -4 6 -1 9 6 6 7 -3 20 0 28 5 13 9 13 11 0 20 -8 5 -19
9 -25 9 -5 0 -4 -3 3 -6 6 -2 12 -9 12 -14 0 -6 -4 -8 -9 -5 -5 3 -26 8 -47
11 -21 2 -40 9 -44 14 -3 6 -27 8 -52 6 l-47 -4 77 39 c42 22 97 57 122 79 25
22 46 40 46 41 1 0 2 -12 2 -27z m-1698 13 c0 -2 -8 -10 -17 -17 -16 -13 -17
-12 -4 4 13 16 21 21 21 13z m-1650 -426 c0 -5 -4 -10 -10 -10 -5 0 -10 5 -10
10 0 6 5 10 10 10 6 0 10 -4 10 -10z m-40 -20 c0 -5 -4 -10 -10 -10 -5 0 -10
5 -10 10 0 6 5 10 10 10 6 0 10 -4 10 -10z m40 -10 c0 -5 -4 -10 -10 -10 -5 0
-10 5 -10 10 0 6 5 10 10 10 6 0 10 -4 10 -10z m0 -30 c0 -5 -5 -10 -11 -10
-5 0 -7 5 -4 10 3 6 8 10 11 10 2 0 4 -4 4 -10z m4419 -19 c87 -27 141 -62
207 -135 83 -90 109 -160 108 -286 -1 -52 -6 -113 -11 -136 -10 -40 -10 -41
15 -40 20 1 27 -5 32 -24 6 -23 8 -22 18 15 7 22 12 76 12 119 l0 80 51 48
c154 145 417 121 542 -50 52 -71 70 -119 70 -193 1 -79 -24 -133 -64 -135 -13
0 -51 -7 -84 -14 -53 -11 -91 -16 -175 -24 -14 -1 -46 -6 -71 -10 -26 -4 -77
-9 -115 -11 -146 -6 -258 -17 -283 -27 -14 -6 -42 -12 -61 -13 -104 -6 -200
-19 -200 -28 0 -10 -162 -6 -170 5 -10 13 -94 22 -86 10 4 -6 13 -9 21 -5 8 3
15 3 15 0 0 -3 -7 -7 -15 -11 -18 -7 -72 43 -102 94 -22 37 -63 151 -63 174 0
7 -9 23 -20 36 l-20 23 0 -74 c-1 -228 -36 -338 -141 -441 -96 -94 -246 -152
-308 -118 -29 15 -26 18 44 31 70 13 143 48 205 98 57 46 74 65 110 125 31 53
31 81 0 44 -18 -22 -19 -22 -20 -3 0 12 -3 16 -8 9 -8 -12 -105 -25 -222 -29
-74 -2 -75 -3 -100 -38 -14 -20 -31 -36 -37 -37 -7 0 -13 -4 -13 -8 0 -9 -183
-38 -215 -34 -11 1 -25 10 -32 19 -7 8 -22 21 -34 27 -19 9 -27 7 -55 -21 -25
-26 -40 -33 -70 -33 -42 1 -60 11 -87 50 -14 20 -17 21 -17 7 0 -10 -4 -16 -9
-12 -6 3 -15 -3 -20 -13 -12 -23 -88 -39 -105 -22 -5 5 -23 10 -39 10 -95 0
-56 253 55 361 59 57 140 93 218 97 l65 4 0 116 c0 107 2 122 27 173 32 64
102 139 166 176 56 33 162 63 222 63 109 -1 225 -46 295 -116 l35 -35 25 29
c39 46 129 104 203 129 88 30 223 32 311 4z m-4419 -21 c0 -5 -2 -10 -4 -10
-3 0 -8 5 -11 10 -3 6 -1 10 4 10 6 0 11 -4 11 -10z m7720 -120 c0 -5 -2 -10
-4 -10 -3 0 -8 5 -11 10 -3 6 -1 10 4 10 6 0 11 -4 11 -10z m-5923 -76 c-3 -3
-12 -4 -19 -1 -8 3 -5 6 6 6 11 1 17 -2 13 -5z m82 2 c-2 -2 -20 -6 -39 -10
-25 -4 -31 -3 -20 4 14 9 69 15 59 6z m108 -2 c-3 -3 -12 -4 -19 -1 -8 3 -5 6
6 6 11 1 17 -2 13 -5z m123 2 c0 -11 -19 -15 -25 -6 -3 5 1 10 9 10 9 0 16 -2
16 -4z m3510 -6 c18 -12 2 -12 -25 0 -13 6 -15 9 -5 9 8 0 22 -4 30 -9z
m-3560 -10 c-8 -5 -19 -10 -25 -10 -5 0 -3 5 5 10 8 5 20 10 25 10 6 0 3 -5
-5 -10z m3585 -21 c33 -6 76 -20 97 -30 21 -11 38 -17 38 -13 0 3 20 -18 45
-47 25 -29 45 -59 45 -66 0 -17 10 -16 33 2 10 7 50 19 88 26 87 15 198 1 270
-36 l49 -24 0 30 c0 68 69 110 148 91 20 -5 48 -10 62 -10 24 -1 24 0 6 13
-18 13 -17 14 12 12 25 -2 30 -6 29 -26 -1 -14 -8 -26 -15 -27 -7 -1 -8 0 -2
3 19 9 10 21 -15 19 -14 0 -25 -3 -25 -6 0 -8 44 -35 52 -32 4 1 5 -4 2 -12
-3 -7 2 -19 11 -26 8 -7 15 -19 15 -27 0 -19 -40 -52 -62 -53 -10 0 -25 -11
-34 -25 -9 -14 -21 -25 -28 -25 -6 0 -4 5 4 10 11 7 7 8 -15 6 -17 -1 -35 0
-40 3 -6 3 1 -4 15 -16 14 -13 21 -23 16 -23 -5 0 -1 -10 10 -21 l19 -22 -32
17 c-30 15 -33 15 -41 0 -6 -12 -11 -13 -16 -5 -5 8 -13 5 -24 -8 -18 -22
-100 -53 -114 -44 -5 3 -18 -3 -28 -12 -10 -9 -22 -15 -27 -12 -13 8 -118 -10
-154 -26 -66 -30 -312 -43 -377 -21 -24 8 -48 12 -53 9 -5 -4 -9 2 -10 12 0
16 -1 16 -9 -2 -6 -17 -9 -13 -14 20 -4 22 -12 68 -18 102 -14 83 -57 172
-113 231 l-45 49 38 17 c31 14 98 31 138 35 6 1 37 -4 69 -10z m-3084 -47 c62
-27 130 -91 164 -153 27 -48 30 -63 30 -139 0 -68 -5 -95 -22 -132 -13 -26
-23 -52 -23 -58 0 -6 -4 -8 -10 -5 -5 3 -10 2 -10 -3 0 -6 -31 -9 -72 -8 -40
1 -84 -2 -97 -6 -14 -5 -27 -5 -30 1 -3 5 -42 12 -86 16 -44 3 -96 11 -115 17
-19 6 -49 12 -67 13 -40 2 -133 44 -133 59 0 6 -4 5 -9 -3 -15 -23 -34 65 -26
118 15 109 103 229 200 277 94 45 214 48 306 6z m-1516 -2 c4 -6 -1 -7 -11 -3
-12 4 -15 3 -10 -5 4 -7 3 -12 -3 -12 -16 0 -22 18 -9 23 20 8 26 8 33 -3z
m42 4 c-3 -3 -12 -4 -19 -1 -8 3 -5 6 6 6 11 1 17 -2 13 -5z m623 -14 c0 -5
-2 -10 -4 -10 -3 0 -8 5 -11 10 -3 6 -1 10 4 10 6 0 11 -4 11 -10z m6030 -40
c0 -5 -5 -10 -11 -10 -5 0 -7 5 -4 10 3 6 8 10 11 10 2 0 4 -4 4 -10z m-6120
-30 c0 -5 -7 -7 -15 -4 -8 4 -15 8 -15 10 0 2 7 4 15 4 8 0 15 -4 15 -10z
m-1657 -75 c-3 -9 -8 -14 -10 -11 -3 3 -2 9 2 15 9 16 15 13 8 -4z m1 -51 c3
-8 2 -12 -4 -9 -6 3 -10 10 -10 16 0 14 7 11 14 -7z m7437 -87 c-32 -52 -106
-116 -165 -143 -69 -32 -176 -41 -236 -20 l-45 16 49 -5 c130 -13 259 34 350
128 33 35 63 62 65 61 2 -2 -6 -18 -18 -37z m-7072 -127 c67 -21 164 -25 241
-10 39 7 42 6 26 -5 -30 -23 -124 -38 -184 -30 -69 9 -146 42 -192 84 l-35 32
40 -26 c22 -14 69 -34 104 -45z m-336 23 c-7 -2 -21 -2 -30 0 -10 3 -4 5 12 5
17 0 24 -2 18 -5z m14 -39 c-3 -3 -12 -4 -19 -1 -8 3 -5 6 6 6 11 1 17 -2 13
-5z m20 -66 c-3 -8 -6 -5 -6 6 -1 11 2 17 5 13 3 -3 4 -12 1 -19z m6736 -100
c-41 -79 -130 -161 -200 -188 -76 -30 -186 -37 -233 -17 l-35 15 71 1 c76 1
153 20 224 56 57 29 140 112 171 170 14 27 25 39 27 30 2 -8 -9 -38 -25 -67z
m-5951 -27 c86 -110 224 -169 366 -156 82 8 92 -5 18 -24 -126 -31 -260 11
-353 112 -35 38 -91 127 -80 127 2 0 24 -26 49 -59z m550 -172 c87 -154 269
-264 470 -285 70 -7 204 9 271 32 55 19 45 6 -17 -21 -81 -36 -205 -50 -305
-36 -188 28 -318 104 -411 241 -42 62 -90 190 -89 237 0 20 6 11 22 -37 12
-36 39 -95 59 -131z m4858 39 c-98 -263 -412 -411 -717 -337 -64 16 -82 32
-23 22 25 -4 99 -8 165 -7 102 0 131 4 195 26 110 39 167 74 246 152 52 52 81
91 108 147 20 42 37 85 38 95 0 10 3 5 5 -12 2 -17 -5 -55 -17 -86z m774 106
c9 -4 21 -16 27 -27 10 -17 9 -19 -5 -14 -9 4 -16 1 -16 -5 0 -6 -3 -8 -6 -5
-4 3 -18 -3 -32 -13 -33 -27 -42 -25 -42 7 0 45 35 72 74 57z m-1660 -75 c-36
-73 -135 -169 -208 -203 -34 -16 -85 -30 -118 -33 -71 -7 -80 11 -10 22 106
16 245 109 314 210 24 35 44 62 46 60 2 -2 -9 -27 -24 -56z m-4711 28 c3 -8
-6 -12 -24 -12 -16 0 -29 5 -29 12 0 23 44 24 53 0z m-666 -13 c-3 -3 -12 -4
-19 -1 -8 3 -5 6 6 6 11 1 17 -2 13 -5z m2447 -189 c34 -16 81 -30 112 -33 55
-5 84 -21 42 -23 -119 -8 -210 38 -298 149 -22 28 -40 52 -40 54 0 2 28 -24
63 -57 34 -34 88 -74 121 -90z m2297 106 c-33 -46 -91 -92 -149 -118 -73 -32
-184 -48 -242 -35 l-45 10 45 1 c139 4 252 44 350 124 30 25 56 46 58 46 2 1
-6 -12 -17 -28z m224 -71 c-43 -130 -200 -268 -365 -321 -122 -40 -308 -37
-438 7 -44 14 -122 52 -122 58 0 2 44 -8 98 -22 79 -20 122 -25 232 -25 122
-1 143 2 215 27 44 15 105 41 135 58 67 38 196 167 230 230 13 26 26 45 28 43
2 -2 -4 -27 -13 -55z m-2228 -97 c60 -71 176 -146 276 -179 71 -24 99 -28 212
-28 95 -1 147 4 195 17 76 20 211 83 275 127 69 47 54 16 -17 -36 -158 -116
-300 -160 -494 -152 -135 6 -221 30 -324 93 -95 58 -187 171 -215 265 -5 18 0
14 20 -15 15 -22 47 -63 72 -92z m4582 50 c-49 -62 -71 -85 -134 -147 -162
-159 -354 -277 -555 -341 -178 -57 -134 -55 -1660 -53 l-1405 3 1205 5 c663 3
1185 6 1161 8 -93 5 -27 12 154 17 115 3 194 10 202 17 7 6 29 8 49 5 36 -6
87 1 197 29 32 8 63 11 69 8 7 -5 8 -2 3 6 -6 10 -1 11 21 6 19 -4 24 -3 15 2
-17 12 71 44 97 36 12 -4 13 -3 4 3 -16 12 51 45 75 37 13 -4 15 -3 5 4 -10 7
-6 12 17 22 17 7 37 10 45 7 11 -4 13 -1 9 11 -6 15 -5 15 11 3 15 -12 17 -12
14 0 -2 8 3 13 10 11 8 -1 16 6 19 17 3 11 12 22 20 25 8 3 11 1 8 -4 -3 -6 1
-7 10 -4 9 4 13 9 11 12 -10 10 15 31 30 25 10 -4 12 0 8 11 -8 21 5 21 21 -1
11 -15 12 -14 10 10 -3 21 5 33 38 59 35 26 38 27 19 6 -20 -22 -21 -26 -7
-32 9 -3 14 -2 11 3 -7 11 20 34 32 27 6 -3 9 2 8 12 0 9 5 16 13 14 16 -3 42
29 33 43 -3 5 2 4 11 -4 15 -11 17 -11 17 2 0 8 -3 17 -7 20 -5 2 -3 3 3 1 6
-1 29 15 50 37 39 40 57 52 33 22z m411 7 c0 -5 -9 -10 -21 -10 -11 0 -17 5
-14 10 3 6 13 10 21 10 8 0 14 -4 14 -10z m-2459 -89 c-40 -73 -227 -154 -307
-132 -25 6 -19 9 35 14 72 8 184 57 241 106 42 36 44 37 31 12z m1434 -22 c4
-19 15 -33 26 -36 25 -7 24 -20 -1 -28 -14 -4 -22 -19 -26 -46 -10 -59 -24
-53 -39 15 -3 16 -14 30 -25 33 -26 7 -25 19 0 26 11 3 22 12 25 21 3 9 7 23
10 31 8 25 23 17 30 -16z m482 16 c0 -8 -3 -13 -5 -10 -3 3 -12 -1 -21 -7 -10
-8 -9 -4 3 10 23 26 23 26 23 7z m-6233 -19 c3 -14 15 -28 26 -31 11 -3 20
-10 20 -15 0 -13 -46 -24 -66 -16 -15 6 -15 4 -3 -11 13 -17 13 -17 -7 0 -11
9 -29 17 -38 17 -14 0 -11 6 13 29 17 16 31 34 31 40 0 21 18 11 24 -13z
m1511 -52 c45 -21 80 -29 143 -32 52 -3 79 -8 70 -13 -21 -14 -110 -10 -164 6
-54 16 -144 71 -144 87 0 6 8 4 18 -5 10 -9 44 -28 77 -43z m-1082 -19 c10
-14 13 -25 7 -25 -6 0 -16 -12 -22 -27 -11 -27 -12 -28 -16 -5 -2 13 -10 26
-18 29 -11 4 -10 9 4 29 21 29 23 29 45 -1z m4904 -15 c15 0 14 -3 -5 -16 -12
-8 -22 -23 -22 -32 -1 -14 -2 -14 -12 3 -6 11 -16 23 -21 26 -5 4 -1 18 9 34
17 26 18 27 26 6 4 -12 15 -21 25 -21z m1370 -12 c-3 -8 -6 -5 -6 6 -1 11 2
17 5 13 3 -3 4 -12 1 -19z m-6745 -237 c57 -22 123 -43 148 -46 25 -4 52 -11
60 -15 14 -7 145 -22 195 -22 11 0 89 5 174 11 135 10 156 10 171 -4 14 -13
127 -15 921 -18 650 -2 578 -2 -256 -2 l-1160 0 -90 27 c-81 24 -263 93 -274
104 -10 9 13 2 111 -35z m6682 22 c-5 -5 -12 -12 -16 -18 -4 -6 -8 -2 -8 8 0
9 7 17 17 17 9 0 12 -3 7 -7z m-6517 -39 c-3 -3 -12 -4 -19 -1 -8 3 -5 6 6 6
11 1 17 -2 13 -5z m6500 -16 c-3 -8 -6 -5 -6 6 -1 11 2 17 5 13 3 -3 4 -12 1
-19z m-6440 6 c-3 -3 -12 -4 -19 -1 -8 3 -5 6 6 6 11 1 17 -2 13 -5z m46 -11
c-7 -2 -19 -2 -25 0 -7 3 -2 5 12 5 14 0 19 -2 13 -5z m4520 -40 c-40 -2 -107
-2 -150 0 -43 1 -10 3 72 3 83 0 118 -2 78 -3z m165 0 c-10 -2 -28 -2 -40 0
-13 2 -5 4 17 4 22 1 32 -1 23 -4z m-5428 -263 c-8 -5 -24 -9 -35 -9 -16 1
-16 2 5 9 35 11 48 11 30 0z m6800 -135 c0 -8 -4 -15 -10 -15 -5 0 -10 7 -10
15 0 8 5 15 10 15 6 0 10 -7 10 -15z m-6710 -41 c0 -8 -4 -12 -10 -9 -5 3 -10
10 -10 16 0 5 5 9 10 9 6 0 10 -7 10 -16z m40 6 c-20 -13 -33 -13 -25 0 3 6
14 10 23 10 15 0 15 -2 2 -10z m6602 -32 c-7 -7 -12 -8 -12 -2 0 14 12 26 19
19 2 -3 -1 -11 -7 -17z m-6532 -2 c0 -3 -4 -8 -10 -11 -5 -3 -10 -1 -10 4 0 6
5 11 10 11 6 0 10 -2 10 -4z m253 -116 c6 0 2 -7 -9 -15 -10 -8 -23 -14 -29
-15 -5 0 -3 5 5 10 13 9 13 11 0 21 -13 9 -12 10 3 5 10 -3 24 -6 30 -6z m-6
-52 c-3 -8 -6 -5 -6 6 -1 11 2 17 5 13 3 -3 4 -12 1 -19z m5643 -168 c0 -5 -9
-10 -21 -10 -11 0 -17 5 -14 10 3 6 13 10 21 10 8 0 14 -4 14 -10z m-170 -40
c0 -5 -4 -10 -9 -10 -6 0 -13 5 -16 10 -3 6 1 10 9 10 9 0 16 -4 16 -10z
m-4820 -10 c0 -5 -4 -10 -10 -10 -5 0 -10 5 -10 10 0 6 5 10 10 10 6 0 10 -4
10 -10z m200 -10 c18 -12 2 -12 -25 0 -13 6 -15 9 -5 9 8 0 22 -4 30 -9z
m4485 0 c-19 -8 -19 -9 -1 -9 11 -1 17 -4 13 -7 -3 -4 -13 -4 -22 0 -20 7 -10
26 13 25 14 0 13 -2 -3 -9z m-4415 -20 c0 -5 -5 -10 -11 -10 -5 0 -7 5 -4 10
3 6 8 10 11 10 2 0 4 -4 4 -10z m230 -30 c0 -5 -4 -10 -10 -10 -5 0 -10 5 -10
10 0 6 5 10 10 10 6 0 10 -4 10 -10z m740 -20 c0 -5 -5 -10 -11 -10 -5 0 -7 5
-4 10 3 6 8 10 11 10 2 0 4 -4 4 -10z m-383 -6 c-3 -3 -12 -4 -19 -1 -8 3 -5
6 6 6 11 1 17 -2 13 -5z m2923 -41 c-4 -42 -5 -44 -8 -15 -3 30 2 62 10 62 2
0 1 -21 -2 -47z m-2860 27 c8 -5 11 -10 5 -10 -5 0 -17 5 -25 10 -8 5 -10 10
-5 10 6 0 17 -5 25 -10z m417 4 c-3 -3 -12 -4 -19 -1 -8 3 -5 6 6 6 11 1 17
-2 13 -5z m1977 -9 c-7 -16 -24 -21 -24 -6 0 8 7 13 27 20 1 1 0 -6 -3 -14z
m106 -4 c0 -4 -9 -7 -20 -7 -20 0 -25 7 -14 19 7 7 34 -2 34 -12z m-2020 -11
c0 -5 -7 -7 -15 -4 -8 4 -12 10 -9 15 6 11 24 2 24 -11z m1335 10 c3 -5 1 -10
-4 -10 -6 0 -11 5 -11 10 0 6 2 10 4 10 3 0 8 -4 11 -10z m830 1 c3 -5 1 -12
-5 -16 -5 -3 -10 1 -10 9 0 18 6 21 15 7z m-1975 -11 c0 -5 -4 -10 -10 -10 -5
0 -10 5 -10 10 0 6 5 10 10 10 6 0 10 -4 10 -10z m1080 0 c0 -5 -5 -10 -11
-10 -5 0 -7 5 -4 10 3 6 8 10 11 10 2 0 4 -4 4 -10z m792 -22 c-6 -6 -18 -7
-29 -3 -16 8 -16 9 5 12 12 3 22 10 23 16 0 8 3 7 6 -1 3 -8 1 -18 -5 -24z
m-232 -4 c0 -8 -4 -12 -10 -9 -5 3 -10 10 -10 16 0 5 5 9 10 9 6 0 10 -7 10
-16z"/>
<path d="M4170 7609 c0 -12 -4 -17 -11 -13 -6 3 -3 -5 6 -20 10 -14 19 -26 21
-26 2 0 4 18 4 40 0 22 -4 40 -10 40 -5 0 -10 -9 -10 -21z"/>
<path d="M3000 6946 c0 -2 20 -16 45 -32 25 -15 48 -36 51 -47 8 -26 15 -16 7
11 -3 12 -11 22 -18 22 -7 0 -20 11 -29 25 -9 14 -25 25 -36 25 -11 0 -20 -2
-20 -4z"/>
<path d="M2763 6266 c-9 -11 -9 -15 0 -19 7 -3 14 3 14 14 2 22 2 22 -14 5z"/>
<path d="M7374 6146 c-10 -8 -17 -16 -14 -19 3 -2 14 4 24 14 23 22 18 25 -10
5z"/>
<path d="M7668 5353 c7 -3 16 -2 19 1 4 3 -2 6 -13 5 -11 0 -14 -3 -6 -6z"/>
<path d="M6745 4149 c-4 -6 -5 -12 -2 -15 2 -3 7 2 10 11 7 17 1 20 -8 4z"/>
<path d="M6740 4111 c0 -6 4 -13 10 -16 6 -3 7 1 4 9 -7 18 -14 21 -14 7z"/>
<path d="M8120 7760 c0 -5 5 -10 11 -10 5 0 7 5 4 10 -3 6 -8 10 -11 10 -2 0
-4 -4 -4 -10z"/>
<path d="M4753 6783 c9 -2 23 -2 30 0 6 3 -1 5 -18 5 -16 0 -22 -2 -12 -5z"/>
<path d="M4361 5414 c0 -11 3 -14 6 -6 3 7 2 16 -1 19 -3 4 -6 -2 -5 -13z"/>
<path d="M6010 5380 c0 -5 5 -10 10 -10 6 0 10 5 10 10 0 6 -4 10 -10 10 -5 0
-10 -4 -10 -10z"/>
<path d="M6052 5059 c18 -7 33 -7 45 0 14 8 9 10 -27 10 -42 -1 -43 -1 -18
-10z"/>
<path d="M3646 5255 c-11 -8 -15 -15 -10 -15 6 0 19 7 30 15 10 8 15 14 9 14
-5 0 -19 -6 -29 -14z"/>
<path d="M3790 3980 c0 -5 5 -10 11 -10 5 0 7 5 4 10 -3 6 -8 10 -11 10 -2 0
-4 -4 -4 -10z"/>
<path d="M4495 3949 c-11 -16 -1 -19 13 -3 7 8 8 14 3 14 -5 0 -13 -5 -16 -11z"/>
<path d="M7058 3003 c7 -3 16 -2 19 1 4 3 -2 6 -13 5 -11 0 -14 -3 -6 -6z"/>
<path d="M7161 2957 c2 -1 13 -9 24 -17 19 -14 19 -14 6 3 -7 9 -18 17 -24 17
-6 0 -8 -1 -6 -3z"/>
<path d="M4620 3620 c-9 -6 -10 -10 -3 -10 6 0 15 5 18 10 8 12 4 12 -15 0z"/>
<path d="M6090 2633 c0 -5 5 -15 10 -23 8 -12 10 -11 10 8 0 12 -4 22 -10 22
-5 0 -10 -3 -10 -7z"/>
<path d="M8386 1841 c-3 -5 1 -11 9 -15 15 -6 29 7 18 18 -9 9 -21 8 -27 -3z"/>
<path d="M7608 1513 c7 -3 16 -2 19 1 4 3 -2 6 -13 5 -11 0 -14 -3 -6 -6z"/>
<path d="M7658 1503 c6 -2 18 -2 25 0 6 3 1 5 -13 5 -14 0 -19 -2 -12 -5z"/>
<path d="M2926 1501 c-4 -5 1 -8 9 -7 21 3 31 16 12 16 -9 0 -18 -4 -21 -9z"/>
<path d="M2758 1493 c23 -2 61 -2 85 0 23 2 4 4 -43 4 -47 0 -66 -2 -42 -4z"/>
<path d="M8902 5385 c0 -16 2 -22 5 -12 2 9 2 23 0 30 -3 6 -5 -1 -5 -18z"/>
<path d="M8900 5295 c0 -8 2 -15 4 -15 2 0 6 7 10 15 3 8 1 15 -4 15 -6 0 -10
-7 -10 -15z"/>
<path d="M8895 5260 c3 -5 8 -10 11 -10 2 0 4 5 4 10 0 6 -5 10 -11 10 -5 0
-7 -4 -4 -10z"/>
<path d="M8895 5230 c3 -5 8 -10 11 -10 2 0 4 5 4 10 0 6 -5 10 -11 10 -5 0
-7 -4 -4 -10z"/>
<path d="M8899 5028 c-5 -17 -4 -50 3 -54 4 -3 8 9 8 25 0 17 -2 31 -5 31 -3
0 -5 -1 -6 -2z"/>
<path d="M8930 4936 c0 -9 5 -16 10 -16 6 0 10 4 10 9 0 6 -4 13 -10 16 -5 3
-10 -1 -10 -9z"/>
<path d="M8968 4703 c7 -3 16 -2 19 1 4 3 -2 6 -13 5 -11 0 -14 -3 -6 -6z"/>
<path d="M8953 4665 c-9 -24 1 -27 15 -5 8 13 8 20 2 20 -6 0 -13 -7 -17 -15z"/>
<path d="M9030 3740 c0 -13 30 -13 50 0 11 7 7 10 -17 10 -18 0 -33 -4 -33
-10z"/>
<path d="M1296 3711 c-4 -5 -2 -12 3 -15 5 -4 12 -2 15 3 4 5 2 12 -3 15 -5 4
-12 2 -15 -3z"/>
<path d="M1250 3340 c0 -5 5 -10 11 -10 5 0 7 5 4 10 -3 6 -8 10 -11 10 -2 0
-4 -4 -4 -10z"/>
<path d="M9090 3340 c0 -5 7 -7 15 -4 8 4 15 8 15 10 0 2 -7 4 -15 4 -8 0 -15
-4 -15 -10z"/>
<path d="M1277 3060 c3 -11 12 -20 19 -20 8 0 14 9 14 20 0 13 -7 20 -19 20
-14 0 -18 -5 -14 -20z"/>
<path d="M1250 2820 c0 -5 5 -10 10 -10 6 0 10 5 10 10 0 6 -4 10 -10 10 -5 0
-10 -4 -10 -10z"/>
<path d="M9178 2703 c7 -3 16 -2 19 1 4 3 -2 6 -13 5 -11 0 -14 -3 -6 -6z"/>
<path d="M1240 2690 c0 -5 5 -10 10 -10 6 0 10 5 10 10 0 6 -4 10 -10 10 -5 0
-10 -4 -10 -10z"/>
<path d="M1218 2613 c6 -2 18 -2 25 0 6 3 1 5 -13 5 -14 0 -19 -2 -12 -5z"/>
<path d="M9050 2200 c0 -22 5 -40 10 -40 6 0 10 18 10 40 0 22 -4 40 -10 40
-5 0 -10 -18 -10 -40z"/>
<path d="M1295 2110 c-3 -5 -1 -10 4 -10 6 0 11 5 11 10 0 6 -2 10 -4 10 -3 0
-8 -4 -11 -10z"/>
<path d="M8973 1653 c9 -2 23 -2 30 0 6 3 -1 5 -18 5 -16 0 -22 -2 -12 -5z"/>
<path d="M8973 1623 c9 -2 23 -2 30 0 6 3 -1 5 -18 5 -16 0 -22 -2 -12 -5z"/>
<path d="M1445 1490 c-3 -5 -1 -10 4 -10 6 0 11 5 11 10 0 6 -2 10 -4 10 -3 0
-8 -4 -11 -10z"/>
<path d="M8895 1480 c-13 -6 -15 -9 -5 -9 8 0 22 4 30 9 18 12 2 12 -25 0z"/>
<path d="M1517 1439 c7 -7 15 -10 18 -7 3 3 -2 9 -12 12 -14 6 -15 5 -6 -5z"/>
<path d="M1610 1260 c0 -5 7 -10 15 -10 8 0 15 5 15 10 0 6 -7 10 -15 10 -8 0
-15 -4 -15 -10z"/>
<path d="M1680 1199 c0 -5 5 -7 10 -4 6 3 10 8 10 11 0 2 -4 4 -10 4 -5 0 -10
-5 -10 -11z"/>
<path d="M1645 1190 c3 -5 8 -10 11 -10 2 0 4 5 4 10 0 6 -5 10 -11 10 -5 0
-7 -4 -4 -10z"/>
<path d="M1700 1159 c0 -5 5 -7 10 -4 6 3 10 8 10 11 0 2 -4 4 -10 4 -5 0 -10
-5 -10 -11z"/>
<path d="M1730 1130 c0 -5 5 -10 11 -10 5 0 7 5 4 10 -3 6 -8 10 -11 10 -2 0
-4 -4 -4 -10z"/>
<path d="M1695 1110 c-3 -6 1 -7 9 -4 18 7 21 14 7 14 -6 0 -13 -4 -16 -10z"/>
<path d="M1750 1109 c-13 -9 -12 -10 3 -5 11 3 20 0 23 -9 4 -8 10 -12 16 -9
5 3 4 11 -3 20 -14 17 -19 17 -39 3z"/>
<path d="M1730 1080 c0 -13 18 -22 24 -11 3 5 -1 11 -9 15 -8 3 -15 1 -15 -4z"/>
<path d="M1856 1005 c-3 -8 -1 -15 4 -15 6 0 10 7 10 15 0 8 -2 15 -4 15 -2 0
-6 -7 -10 -15z"/>
<path d="M1895 1000 c3 -5 11 -10 16 -10 6 0 7 5 4 10 -3 6 -11 10 -16 10 -6
0 -7 -4 -4 -10z"/>
<path d="M8440 990 c0 -5 5 -10 10 -10 6 0 10 5 10 10 0 6 -4 10 -10 10 -5 0
-10 -4 -10 -10z"/>
<path d="M2070 902 c0 -6 -8 -13 -17 -15 -16 -4 -16 -5 -1 -6 18 -1 34 16 24
26 -3 4 -6 1 -6 -5z"/>
<path d="M2095 900 c-3 -5 1 -10 10 -10 9 0 13 5 10 10 -3 6 -8 10 -10 10 -2
0 -7 -4 -10 -10z"/>
<path d="M2145 840 c-3 -5 -1 -10 4 -10 6 0 11 5 11 10 0 6 -2 10 -4 10 -3 0
-8 -4 -11 -10z"/>
<path d="M8188 803 c7 -3 16 -2 19 1 4 3 -2 6 -13 5 -11 0 -14 -3 -6 -6z"/>
<path d="M2210 784 c0 -8 5 -12 10 -9 6 4 8 11 5 16 -9 14 -15 11 -15 -7z"/>
<path d="M2320 789 c0 -5 5 -7 10 -4 6 3 10 8 10 11 0 2 -4 4 -10 4 -5 0 -10
-5 -10 -11z"/>
<path d="M2465 701 c-3 -5 -1 -12 5 -16 5 -3 10 1 10 9 0 18 -6 21 -15 7z"/>
<path d="M7910 681 c0 -6 4 -13 10 -16 6 -3 7 1 4 9 -7 18 -14 21 -14 7z"/>
<path d="M7570 590 c0 -5 7 -10 15 -10 8 0 15 5 15 10 0 6 -7 10 -15 10 -8 0
-15 -4 -15 -10z"/>
<path d="M3036 573 c-6 -14 -5 -15 5 -6 7 7 10 15 7 18 -3 3 -9 -2 -12 -12z"/>
<path d="M7502 560 c-7 -11 -10 -20 -7 -20 3 0 14 9 25 20 12 12 15 20 7 20
-7 0 -18 -9 -25 -20z"/>
<path d="M3148 563 c6 -2 18 -2 25 0 6 3 1 5 -13 5 -14 0 -19 -2 -12 -5z"/>
<path d="M3280 549 c0 -5 5 -7 10 -4 6 3 10 8 10 11 0 2 -4 4 -10 4 -5 0 -10
-5 -10 -11z"/>
<path d="M3555 550 c3 -5 19 -10 36 -10 16 0 29 5 29 10 0 6 -16 10 -36 10
-21 0 -33 -4 -29 -10z"/>
<path d="M7040 553 c0 -5 11 -9 25 -9 14 -1 25 2 25 7 0 5 -11 9 -25 9 -14 0
-25 -3 -25 -7z"/>
<path d="M3855 527 c-4 -10 -5 -21 -1 -24 10 -10 18 4 13 24 -4 17 -4 17 -12
0z"/>
<path d="M7045 510 c3 -5 11 -10 16 -10 6 0 7 5 4 10 -3 6 -11 10 -16 10 -6 0
-7 -4 -4 -10z"/>
<path d="M4001 494 c0 -11 3 -14 6 -6 3 7 2 16 -1 19 -3 4 -6 -2 -5 -13z"/>
<path d="M4030 495 c0 -8 5 -15 10 -15 6 0 10 7 10 15 0 8 -4 15 -10 15 -5 0
-10 -7 -10 -15z"/>
<path d="M6705 500 c3 -5 8 -10 11 -10 2 0 4 5 4 10 0 6 -5 10 -11 10 -5 0 -7
-4 -4 -10z"/>
<path d="M4556 483 c-6 -14 -5 -15 5 -6 7 7 10 15 7 18 -3 3 -9 -2 -12 -12z"/>
<path d="M5565 490 c-3 -5 3 -10 14 -10 11 0 22 -8 24 -17 4 -17 5 -17 6 -1 1
21 -35 43 -44 28z"/>
<path d="M5655 490 c-19 -8 -19 -9 3 -9 12 -1 22 4 22 9 0 6 -1 10 -2 9 -2 0
-12 -4 -23 -9z"/>
<path d="M5288 483 c7 -3 16 -2 19 1 4 3 -2 6 -13 5 -11 0 -14 -3 -6 -6z"/>
<path d="M5770 480 c-13 -8 -13 -10 2 -10 9 0 20 5 23 10 8 13 -5 13 -25 0z"/>
<path d="M5837 479 c7 -7 15 -10 18 -7 3 3 -2 9 -12 12 -14 6 -15 5 -6 -5z"/>
<path d="M5910 480 c-8 -5 -10 -10 -5 -10 6 0 17 5 25 10 8 5 11 10 5 10 -5 0
-17 -5 -25 -10z"/>
<path d="M6130 480 c-11 -8 -7 -9 15 -4 37 8 45 14 19 14 -10 0 -26 -5 -34
-10z"/>
<path d="M4370 469 c0 -5 5 -7 10 -4 6 3 10 8 10 11 0 2 -4 4 -10 4 -5 0 -10
-5 -10 -11z"/>
</g>
</svg>
